# Blender v2.78 (sub 0) OBJ File: 'room.blend'
# www.blender.org
mtllib room.mtl
o Room_Cube
v 3.000000 0.000000 -2.000000
v 3.000000 0.000000 1.000000
v -1.000000 0.000000 1.000000
v -1.000000 0.000000 -2.000000
v 3.000000 2.000000 -2.000000
v 2.999999 2.000000 1.000001
v -1.000000 2.000000 1.000000
v -1.000000 2.000000 -2.000000
v 3.200000 -0.100000 -2.150000
v 3.200000 -0.100000 1.150000
v -1.200000 -0.100000 -2.150001
v 3.200001 2.100000 -2.150000
v -1.200000 -0.100000 1.150000
v 3.199999 2.100000 1.150001
v -1.200001 2.100000 1.150000
v -1.200000 2.100000 -2.150000
v -1.200000 0.851325 0.144491
v -1.200000 0.851325 -1.144492
v -1.200000 1.688592 0.144491
v -1.200000 1.688592 -1.144492
v -1.000000 0.851325 0.144491
v -1.000000 0.851325 -1.144492
v -1.000000 1.688592 0.144491
v -1.000000 1.688592 -1.144492
v -1.200000 0.851325 0.144491
v -1.200000 0.851325 -1.144492
v -1.200000 1.688592 0.144491
v -1.200000 1.688592 -1.144492
v -1.000000 0.851325 0.144491
v -1.000000 0.851325 -1.144492
v -1.000000 1.688592 0.144491
v -1.000000 1.688592 -1.144492
vt -5.6684 9.5858
vt -12.3166 9.5858
vt -12.3166 4.5996
vt -5.6684 4.5996
vt 5.4846 5.7544
vt 0.4985 5.7544
vt 0.4985 -0.8938
vt 5.4846 -0.8938
vt -12.3166 -4.2679
vt -7.2684 -4.3507
vt -7.2132 -0.9853
vt -12.2614 -0.9024
vt -0.5374 -4.4612
vt -0.4822 -1.0957
vt 4.2594 -4.3078
vt 4.2099 -1.0015
vt 2.8888 -1.5125
vt 2.8316 -3.0662
vt 10.8225 -0.9024
vt 10.8720 -4.2087
vt 0.4899 6.4192
vt -4.9949 6.4192
vt -4.9949 -0.8938
vt 0.4899 -0.8938
vt -5.0036 4.5910
vt -12.3166 4.5910
vt -12.3166 -0.8938
vt -5.0036 -0.8938
vt 7.6987 -4.5196
vt 7.6738 -8.1822
vt 13.1677 -8.2195
vt 13.1926 -4.5569
vt -12.3166 -4.5407
vt -12.2812 -8.2300
vt -4.9026 -8.1591
vt -4.9380 -4.4698
vt -3.2825 -7.4788
vt -3.3124 -5.9090
vt 0.3736 -4.4698
vt 0.3487 -8.1324
vt 0.8755 -3.0846
vt 2.8074 -3.0266
vt 0.9085 -3.0553
vt -1.1660 -7.5345
vt -1.3094 -5.9972
vt 0.8322 -1.5261
vt 2.8535 -1.5426
vt -3.2486 -7.4488
vt -3.2863 -5.9516
vt -1.1952 -7.4901
vt -1.3404 -6.0257
vt 0.8589 -1.5680
vn 0.0000 1.0000 0.0000
vn 0.0000 -1.0000 -0.0000
vn -1.0000 0.0000 -0.0000
vn 0.0000 0.0000 -1.0000
vn 1.0000 0.0000 0.0000
vn -0.0000 -0.0000 1.0000
usemtl Material
s off
f 1/1/1 4/2/1 3/3/1 2/4/1
f 5/5/2 6/6/2 7/7/2 8/8/2
f 1/9/3 2/10/3 6/11/3 5/12/3
f 2/10/4 3/13/4 7/14/4 6/11/4
f 4/15/5 8/16/5 24/17/5 22/18/5
f 5/19/6 8/16/6 4/15/6 1/20/6
f 9/21/2 10/22/2 13/23/2 11/24/2
f 12/25/1 16/26/1 15/27/1 14/28/1
f 9/29/5 12/30/5 14/31/5 10/32/5
f 10/33/6 14/34/6 15/35/6 13/36/6
f 13/36/3 15/35/3 19/37/3 17/38/3
f 12/30/4 9/29/4 11/39/4 16/40/4
f 21/41/6 22/18/6 30/42/6 29/43/6
f 15/35/3 16/40/3 20/44/3 19/37/3
f 16/40/3 11/39/3 18/45/3 20/44/3
f 11/39/3 13/36/3 17/38/3 18/45/3
f 3/13/5 4/15/5 22/18/5 21/41/5
f 7/14/5 3/13/5 21/41/5 23/46/5
f 8/16/5 7/14/5 23/46/5 24/17/5
f 22/18/6 24/17/6 32/47/6 30/42/6
f 17/38/6 19/37/6 27/48/6 25/49/6
f 19/37/6 20/44/6 28/50/6 27/48/6
f 20/44/6 18/45/6 26/51/6 28/50/6
f 24/17/6 23/46/6 31/52/6 32/47/6
f 18/45/6 17/38/6 25/49/6 26/51/6
f 23/46/6 21/41/6 29/43/6 31/52/6
