# Blender v2.78 (sub 0) OBJ File: 'pokojVR.blend'
# www.blender.org
mtllib pipes.mtl
o Plane.004_Plane.010
v -5.032343 2.978739 0.085713
v -5.032343 2.969952 0.064500
v -5.032343 2.948739 0.055713
v -5.032343 2.927526 0.064500
v -5.032343 2.918739 0.085713
v -5.032343 2.927526 0.106926
v -5.032343 2.948739 0.115713
v -5.032343 2.969952 0.106926
v 5.032343 2.978739 0.085713
v 0.000000 2.978739 0.085713
v 5.032343 2.969952 0.064500
v 0.000000 2.969952 0.064500
v 5.032343 2.948739 0.055713
v 0.000000 2.948739 0.055713
v 5.032343 2.927526 0.064500
v 0.000000 2.927526 0.064500
v 5.032343 2.918739 0.085713
v 0.000000 2.918739 0.085713
v 5.032343 2.927526 0.106926
v 0.000000 2.927526 0.106926
v 5.032343 2.948739 0.115713
v 0.000000 2.948739 0.115713
v 5.032343 2.969952 0.106926
v 0.000000 2.969952 0.106926
v -5.032343 2.978739 -4.515383
v -5.032343 2.969952 -4.536596
v -5.032343 2.948739 -4.545383
v -5.032343 2.927526 -4.536596
v -5.032343 2.918739 -4.515383
v -5.032343 2.927526 -4.494170
v -5.032343 2.948739 -4.485383
v -5.032343 2.969952 -4.494170
v 5.032343 2.978739 -4.515383
v 0.000000 2.978739 -4.515383
v 5.032343 2.969952 -4.536596
v 0.000000 2.969952 -4.536596
v 5.032343 2.948739 -4.545383
v 0.000000 2.948739 -4.545383
v 5.032343 2.927526 -4.536596
v 0.000000 2.927526 -4.536596
v 5.032343 2.918739 -4.515383
v 0.000000 2.918739 -4.515383
v 5.032343 2.927526 -4.494170
v 0.000000 2.927526 -4.494170
v 5.032343 2.948739 -4.485383
v 0.000000 2.948739 -4.485383
v 5.032343 2.969952 -4.494170
v 0.000000 2.969952 -4.494170
v -5.032343 2.978739 -0.057689
v -5.032343 2.969952 -0.078902
v -5.032343 2.948739 -0.087689
v -5.032343 2.927526 -0.078902
v -5.032343 2.918739 -0.057689
v -5.032343 2.927526 -0.036476
v -5.032343 2.948739 -0.027689
v -5.032343 2.969952 -0.036476
v 5.032343 2.978739 -0.057689
v 0.000000 2.978739 -0.057689
v 5.032343 2.969952 -0.078902
v 0.000000 2.969952 -0.078902
v 5.032343 2.948739 -0.087689
v 0.000000 2.948739 -0.087689
v 5.032343 2.927526 -0.078902
v 0.000000 2.927526 -0.078902
v 5.032343 2.918739 -0.057689
v 0.000000 2.918739 -0.057689
v 5.032343 2.927526 -0.036476
v 0.000000 2.927526 -0.036476
v 5.032343 2.948739 -0.027689
v 0.000000 2.948739 -0.027689
v 5.032343 2.969952 -0.036476
v 0.000000 2.969952 -0.036476
v 4.028592 2.822703 6.611899
v 4.028592 2.765457 -5.676197
v 3.618052 2.765457 -5.676197
v 3.618052 2.822703 6.611899
v 4.028592 2.896955 -5.676197
v 4.028592 2.954202 6.611899
v 3.618052 2.896955 -5.676197
v 3.618052 2.954202 6.611899
v 4.028592 2.765457 5.428703
v 3.618052 2.765457 5.428703
v 4.028592 2.896955 5.428703
v 3.618052 2.896955 5.428703
v 4.028592 3.108086 5.428703
v 4.028592 3.108086 6.611899
v 3.618052 3.108086 6.611899
v 3.618052 3.108086 5.428703
v 4.794149 2.656270 6.785313
v 4.764617 2.644037 6.785313
v 4.752384 2.614505 6.785313
v 4.764617 2.584972 6.785313
v 4.794149 2.572739 6.785313
v 4.823683 2.584972 6.785313
v 4.835916 2.614505 6.785313
v 4.823683 2.644037 6.785313
v 4.794149 2.656270 -5.783900
v 4.794149 2.656270 0.065397
v 4.764617 2.644037 -5.783900
v 4.764617 2.644037 0.065397
v 4.752384 2.614505 -5.783900
v 4.752384 2.614505 0.065397
v 4.764617 2.584972 -5.783900
v 4.764617 2.584972 0.065397
v 4.794149 2.572739 -5.783900
v 4.794149 2.572739 0.065397
v 4.823682 2.584972 -5.783900
v 4.823682 2.584972 0.065397
v 4.835914 2.614505 -5.783900
v 4.835915 2.614505 0.065397
v 4.823682 2.644037 -5.783900
v 4.823682 2.644037 0.065397
v 4.787586 2.814398 6.783275
v 4.758053 2.802165 6.783275
v 4.745821 2.772633 6.783275
v 4.758053 2.743100 6.783275
v 4.787586 2.730867 6.783275
v 4.817119 2.743100 6.783275
v 4.829351 2.772633 6.783275
v 4.817119 2.802165 6.783275
v 4.787585 2.814398 -5.785938
v 4.787586 2.814398 0.063360
v 4.758053 2.802165 -5.785938
v 4.758053 2.802165 0.063360
v 4.745820 2.772633 -5.785938
v 4.745821 2.772633 0.063360
v 4.758053 2.743100 -5.785938
v 4.758053 2.743100 0.063360
v 4.787585 2.730867 -5.785938
v 4.787586 2.730867 0.063360
v 4.817118 2.743100 -5.785938
v 4.817118 2.743100 0.063360
v 4.829350 2.772633 -5.785938
v 4.829351 2.772633 0.063360
v 4.817118 2.802165 -5.785938
v 4.817118 2.802165 0.063360
v -5.032343 2.978739 0.211693
v -5.032343 2.969952 0.190480
v -5.032343 2.948739 0.181693
v -5.032343 2.927526 0.190480
v -5.032343 2.918739 0.211693
v -5.032343 2.927526 0.232906
v -5.032343 2.948739 0.241693
v -5.032343 2.969952 0.232906
v 5.032343 2.978739 0.211693
v 0.000000 2.978739 0.211693
v 5.032343 2.969952 0.190480
v 0.000000 2.969952 0.190480
v 5.032343 2.948739 0.181693
v 0.000000 2.948739 0.181693
v 5.032343 2.927526 0.190480
v 0.000000 2.927526 0.190480
v 5.032343 2.918739 0.211693
v 0.000000 2.918739 0.211693
v 5.032343 2.927526 0.232906
v 0.000000 2.927526 0.232906
v 5.032343 2.948739 0.241693
v 0.000000 2.948739 0.241693
v 5.032343 2.969952 0.232906
v 0.000000 2.969952 0.232906
v -5.032343 2.978739 -4.313105
v -5.032343 2.969952 -4.334318
v -5.032343 2.948739 -4.343104
v -5.032343 2.927526 -4.334318
v -5.032343 2.918739 -4.313105
v -5.032343 2.927526 -4.291891
v -5.032343 2.948739 -4.283104
v -5.032343 2.969952 -4.291891
v 5.032343 2.978739 -4.313105
v 0.000000 2.978739 -4.313105
v 5.032343 2.969952 -4.334318
v 0.000000 2.969952 -4.334318
v 5.032343 2.948739 -4.343104
v 0.000000 2.948739 -4.343104
v 5.032343 2.927526 -4.334318
v 0.000000 2.927526 -4.334318
v 5.032343 2.918739 -4.313105
v 0.000000 2.918739 -4.313105
v 5.032343 2.927526 -4.291891
v 0.000000 2.927526 -4.291891
v 5.032343 2.948739 -4.283104
v 0.000000 2.948739 -4.283104
v 5.032343 2.969952 -4.291891
v 0.000000 2.969952 -4.291891
v -5.032343 2.978739 4.652123
v -5.032343 2.969952 4.630910
v -5.032343 2.948739 4.622124
v -5.032343 2.927526 4.630910
v -5.032343 2.918739 4.652123
v -5.032343 2.927526 4.673337
v -5.032343 2.948739 4.682123
v -5.032343 2.969952 4.673337
v 5.032343 2.978739 4.652123
v 0.000000 2.978739 4.652123
v 5.032343 2.969952 4.630910
v 0.000000 2.969952 4.630910
v 5.032343 2.948739 4.622124
v 0.000000 2.948739 4.622124
v 5.032343 2.927526 4.630910
v 0.000000 2.927526 4.630910
v 5.032343 2.918739 4.652123
v 0.000000 2.918739 4.652123
v 5.032343 2.927526 4.673337
v 0.000000 2.927526 4.673337
v 5.032343 2.948739 4.682123
v 0.000000 2.948739 4.682123
v 5.032343 2.969952 4.673337
v 0.000000 2.969952 4.673337
v -4.028592 2.769219 6.611899
v -4.028592 2.711972 -5.676197
v -3.618052 2.711972 -5.676197
v -3.618052 2.769219 6.611899
v -4.028592 2.896955 -5.676197
v -4.028592 2.954202 6.611899
v -3.618052 2.896955 -5.676197
v -3.618052 2.954202 6.611899
v -4.028592 2.711972 5.428703
v -3.618052 2.711972 5.428703
v -4.028592 2.896955 5.428703
v -3.618052 2.896955 5.428703
v -4.028592 3.108086 5.428703
v -4.028592 3.108086 6.611899
v -3.618052 3.108086 6.611899
v -3.618052 3.108086 5.428703
v -4.028592 2.711972 1.109079
v -4.028592 2.711972 1.829755
v -3.618052 2.711972 1.109079
v -3.618052 2.711972 1.829755
v -4.028592 2.896955 1.109079
v -4.028592 2.896955 1.829755
v -3.618052 2.896955 1.109079
v -3.618052 2.896955 1.829755
v -0.651420 2.711972 1.109079
v -0.651420 2.711972 1.829755
v -0.651420 2.896955 1.109079
v -0.651420 2.896955 1.829755
v -0.443186 2.724364 1.109079
v -0.443186 2.724364 1.829755
v -0.535677 2.884564 1.109079
v -0.535677 2.884564 1.829755
v -0.239482 2.856281 1.109079
v -0.239482 2.856281 1.829755
v -0.399682 2.948772 1.109079
v -0.399682 2.948772 1.829755
v -0.139331 3.029747 1.109079
v -0.139331 3.029747 1.829755
v -0.299531 3.122239 1.109079
v -0.299531 3.122239 1.829755
vt 0.0003 0.5624
vt 0.2204 0.5638
vt 0.2204 0.5676
vt 0.0003 0.5662
vt 0.2204 0.5715
vt 0.0003 0.5701
vt 0.2204 0.5753
vt 0.0003 0.5739
vt 0.2204 0.5791
vt 0.0003 0.5777
vt 0.2204 0.5830
vt 0.0003 0.5815
vt 0.2204 0.5868
vt 0.0003 0.5854
vt 0.2204 0.5907
vt 0.0003 0.5892
vt 0.0003 0.5586
vt 0.2204 0.5599
vt 0.4405 0.5624
vt 0.4405 0.5662
vt 0.4405 0.5701
vt 0.4405 0.5739
vt 0.4405 0.5777
vt 0.4405 0.5815
vt 0.4405 0.5854
vt 0.4405 0.5892
vt 0.4405 0.5586
vt 0.0003 0.6967
vt 0.2204 0.6981
vt 0.2204 0.7020
vt 0.0003 0.7006
vt 0.2204 0.7058
vt 0.0003 0.7044
vt 0.2204 0.7096
vt 0.0003 0.7082
vt 0.2204 0.7135
vt 0.0003 0.7120
vt 0.2204 0.7173
vt 0.0003 0.7159
vt 0.2204 0.7212
vt 0.0003 0.7197
vt 0.0003 0.6891
vt 0.2204 0.6904
vt 0.2204 0.6943
vt 0.0003 0.6929
vt 0.4405 0.6967
vt 0.4405 0.7006
vt 0.4405 0.7044
vt 0.4405 0.7082
vt 0.4405 0.7120
vt 0.4405 0.7159
vt 0.4405 0.7197
vt 0.4405 0.6891
vt 0.4405 0.6929
vt 0.0003 0.7255
vt 0.2204 0.7269
vt 0.2204 0.7307
vt 0.0003 0.7294
vt 0.2204 0.7346
vt 0.0003 0.7332
vt 0.2204 0.7384
vt 0.0003 0.7370
vt 0.2204 0.7423
vt 0.0003 0.7408
vt 0.2204 0.7461
vt 0.0003 0.7447
vt 0.2204 0.7499
vt 0.0003 0.7485
vt 0.2204 0.7538
vt 0.0003 0.7523
vt 0.0003 0.7217
vt 0.2204 0.7231
vt 0.4405 0.7255
vt 0.4405 0.7294
vt 0.4405 0.7332
vt 0.4405 0.7370
vt 0.4405 0.7408
vt 0.4405 0.7447
vt 0.4405 0.7485
vt 0.4405 0.7523
vt 0.4405 0.7217
vt 0.1171 0.0275
vt 0.0229 0.0275
vt 0.0229 0.0601
vt 0.1171 0.0601
vt 0.1166 0.0705
vt 0.0224 0.0705
vt 0.0218 0.0827
vt 0.1158 0.0873
vt 0.0125 0.0275
vt 0.0125 0.0601
vt 0.9997 0.0275
vt 0.9997 0.0121
vt 0.1172 0.0121
vt 0.1166 0.0170
vt 0.0224 0.0170
vt 0.9997 0.0601
vt 0.1170 0.0755
vt 0.9996 0.0755
vt 0.9676 0.3125
vt 0.9676 0.2774
vt 0.0183 0.2774
vt 0.0183 0.3125
vt 0.0003 0.2774
vt 0.0003 0.3125
vt 0.0003 0.0275
vt 0.0003 0.0601
vt 0.1158 0.0003
vt 0.0218 0.0048
vt 0.0003 0.3282
vt 0.2905 0.3300
vt 0.2905 0.3351
vt 0.0003 0.3332
vt 0.2905 0.3402
vt 0.0003 0.3383
vt 0.2905 0.3452
vt 0.0003 0.3433
vt 0.2905 0.3503
vt 0.0003 0.3484
vt 0.2905 0.3554
vt 0.0003 0.3534
vt 0.0003 0.3130
vt 0.2905 0.3148
vt 0.2905 0.3199
vt 0.0003 0.3181
vt 0.2905 0.3250
vt 0.0003 0.3232
vt 0.5808 0.3283
vt 0.5808 0.3334
vt 0.5808 0.3384
vt 0.5808 0.3435
vt 0.5808 0.3485
vt 0.5808 0.3536
vt 0.5808 0.3132
vt 0.5808 0.3182
vt 0.5808 0.3233
vt 0.0003 0.3559
vt 0.2905 0.3577
vt 0.2905 0.3627
vt 0.0003 0.3609
vt 0.2905 0.3678
vt 0.0003 0.3660
vt 0.2905 0.3729
vt 0.0003 0.3710
vt 0.2905 0.3779
vt 0.0003 0.3761
vt 0.2905 0.3830
vt 0.0003 0.3811
vt 0.2905 0.3881
vt 0.0003 0.3862
vt 0.2905 0.3931
vt 0.0003 0.3912
vt 0.2905 0.3982
vt 0.0003 0.3963
vt 0.5808 0.3560
vt 0.5808 0.3611
vt 0.5808 0.3661
vt 0.5808 0.3712
vt 0.5808 0.3762
vt 0.5808 0.3812
vt 0.5808 0.3863
vt 0.5808 0.3913
vt 0.5808 0.3964
vt 0.0003 0.6603
vt 0.2204 0.6616
vt 0.2204 0.6655
vt 0.0003 0.6641
vt 0.2204 0.6693
vt 0.0003 0.6679
vt 0.2204 0.6732
vt 0.0003 0.6718
vt 0.2204 0.6770
vt 0.0003 0.6756
vt 0.2204 0.6809
vt 0.0003 0.6794
vt 0.2204 0.6847
vt 0.0003 0.6832
vt 0.2204 0.6885
vt 0.0003 0.6871
vt 0.0003 0.6564
vt 0.2204 0.6578
vt 0.4405 0.6603
vt 0.4405 0.6641
vt 0.4405 0.6679
vt 0.4405 0.6718
vt 0.4405 0.6756
vt 0.4405 0.6794
vt 0.4405 0.6832
vt 0.4405 0.6871
vt 0.4405 0.6564
vt 0.0003 0.6027
vt 0.2204 0.6041
vt 0.2204 0.6079
vt 0.0003 0.6065
vt 0.2204 0.6118
vt 0.0003 0.6103
vt 0.2204 0.6156
vt 0.0003 0.6142
vt 0.2204 0.6195
vt 0.0003 0.6180
vt 0.2204 0.6233
vt 0.0003 0.6218
vt 0.0003 0.5912
vt 0.2204 0.5926
vt 0.2204 0.5964
vt 0.0003 0.5950
vt 0.2204 0.6002
vt 0.0003 0.5989
vt 0.4405 0.6027
vt 0.4405 0.6065
vt 0.4405 0.6103
vt 0.4405 0.6142
vt 0.4405 0.6180
vt 0.4405 0.6218
vt 0.4405 0.5912
vt 0.4405 0.5950
vt 0.4405 0.5989
vt 0.0003 0.6238
vt 0.2204 0.6252
vt 0.2204 0.6290
vt 0.0003 0.6277
vt 0.2204 0.6329
vt 0.0003 0.6315
vt 0.2204 0.6367
vt 0.0003 0.6353
vt 0.2204 0.6406
vt 0.0003 0.6391
vt 0.2204 0.6444
vt 0.0003 0.6430
vt 0.2204 0.6482
vt 0.0003 0.6468
vt 0.2204 0.6521
vt 0.0003 0.6506
vt 0.2204 0.6559
vt 0.0003 0.6544
vt 0.4405 0.6238
vt 0.4405 0.6277
vt 0.4405 0.6315
vt 0.4405 0.6353
vt 0.4405 0.6391
vt 0.4405 0.6430
vt 0.4405 0.6468
vt 0.4405 0.6506
vt 0.4405 0.6544
vt 0.1303 0.1567
vt 0.1320 0.1217
vt 0.0309 0.1168
vt 0.0292 0.1518
vt 0.1320 0.1059
vt 0.1320 0.0878
vt 0.0309 0.0878
vt 0.0309 0.1010
vt 0.0151 0.1160
vt 0.0134 0.1511
vt 0.2976 0.2611
vt 0.2976 0.2769
vt 0.8776 0.2769
vt 0.8776 0.2611
vt 0.0277 0.1676
vt 0.1288 0.1725
vt 0.4393 0.1365
vt 0.4401 0.1207
vt 0.1328 0.1059
vt 0.6551 0.4964
vt 0.3474 0.4964
vt 0.3474 0.5315
vt 0.6551 0.5315
vt 0.4376 0.1716
vt 0.3294 0.4964
vt 0.3294 0.5315
vt 0.0020 0.1154
vt 0.0003 0.1504
vt 0.0264 0.1807
vt 0.1271 0.1904
vt 0.8776 0.2260
vt 0.2976 0.2260
vt 0.0161 0.4603
vt 0.0512 0.4603
vt 0.0512 0.3987
vt 0.0161 0.3987
vt 0.5803 0.4608
vt 0.0003 0.4608
vt 0.0003 0.4959
vt 0.5803 0.4959
vt 0.0003 0.4964
vt 0.0003 0.5580
vt 0.0354 0.5580
vt 0.0354 0.4964
vt 0.8776 0.2102
vt 0.2976 0.2102
vt 0.3048 0.4603
vt 0.3048 0.3987
vt 0.1296 0.1725
vt 0.4368 0.1874
vt 0.0003 0.3987
vt 0.0003 0.4603
vt 0.3226 0.4603
vt 0.3226 0.3987
vt 0.0440 0.2102
vt 0.0440 0.2260
vt 0.6926 0.1488
vt 0.6934 0.1330
vt 0.2889 0.5580
vt 0.2889 0.4964
vt 0.7104 0.1486
vt 0.7284 0.1382
vt 0.7151 0.1296
vt 0.7032 0.1345
vt 0.2989 0.5580
vt 0.2989 0.4964
vt 0.0341 0.2113
vt 0.0262 0.2249
vt 0.0225 0.2058
vt 0.0140 0.1909
vt 0.0003 0.1988
vt 0.0088 0.2137
vt 0.3117 0.5580
vt 0.3117 0.4964
vt 0.3433 0.4603
vt 0.3433 0.3987
vt 0.3605 0.4603
vt 0.3605 0.3987
vt 0.7376 0.1238
vt 0.7243 0.1152
vt 0.3289 0.5580
vt 0.3289 0.4964
vn 0.0000 0.9239 -0.3827
vn 0.0000 0.3827 -0.9239
vn 0.0000 -0.3827 -0.9239
vn 0.0000 -0.9239 -0.3827
vn 0.0000 -0.9239 0.3827
vn 0.0000 -0.3827 0.9239
vn 0.0000 0.3827 0.9239
vn 0.0000 0.9239 0.3827
vn 0.0000 -0.9988 0.0483
vn -1.0000 0.0000 0.0000
vn 0.0000 0.0000 1.0000
vn 1.0000 0.0000 0.0000
vn 0.0000 1.0000 0.0000
vn 0.0000 -1.0000 0.0000
vn 0.0000 0.0000 -1.0000
vn -0.3827 0.9239 0.0000
vn -0.9239 0.3827 0.0000
vn -0.9239 -0.3827 0.0000
vn -0.3827 -0.9239 0.0000
vn 0.3827 -0.9239 -0.0000
vn 0.9239 -0.3827 -0.0000
vn 0.9239 0.3827 -0.0000
vn 0.3827 0.9239 -0.0000
vn 0.0594 -0.9982 0.0000
vn 0.1065 0.9943 0.0000
vn -0.4269 0.9043 0.0000
vn 0.5436 -0.8394 0.0000
vn 0.8660 -0.5000 0.0000
vn -0.8660 0.5000 0.0000
usemtl None
s off
f 1/1/1 10/2/1 12/3/1 2/4/1
f 2/4/2 12/3/2 14/5/2 3/6/2
f 3/6/3 14/5/3 16/7/3 4/8/3
f 4/8/4 16/7/4 18/9/4 5/10/4
f 5/10/5 18/9/5 20/11/5 6/12/5
f 6/12/6 20/11/6 22/13/6 7/14/6
f 7/14/7 22/13/7 24/15/7 8/16/7
f 8/17/8 24/18/8 10/2/8 1/1/8
f 9/19/1 11/20/1 12/3/1 10/2/1
f 11/20/2 13/21/2 14/5/2 12/3/2
f 13/21/3 15/22/3 16/7/3 14/5/3
f 15/22/4 17/23/4 18/9/4 16/7/4
f 17/23/5 19/24/5 20/11/5 18/9/5
f 19/24/6 21/25/6 22/13/6 20/11/6
f 21/25/7 23/26/7 24/15/7 22/13/7
f 23/27/8 9/19/8 10/2/8 24/18/8
f 25/28/1 34/29/1 36/30/1 26/31/1
f 26/31/2 36/30/2 38/32/2 27/33/2
f 27/33/3 38/32/3 40/34/3 28/35/3
f 28/35/4 40/34/4 42/36/4 29/37/4
f 29/37/5 42/36/5 44/38/5 30/39/5
f 30/39/6 44/38/6 46/40/6 31/41/6
f 31/42/7 46/43/7 48/44/7 32/45/7
f 32/45/8 48/44/8 34/29/8 25/28/8
f 33/46/1 35/47/1 36/30/1 34/29/1
f 35/47/2 37/48/2 38/32/2 36/30/2
f 37/48/3 39/49/3 40/34/3 38/32/3
f 39/49/4 41/50/4 42/36/4 40/34/4
f 41/50/5 43/51/5 44/38/5 42/36/5
f 43/51/6 45/52/6 46/40/6 44/38/6
f 45/53/7 47/54/7 48/44/7 46/43/7
f 47/54/8 33/46/8 34/29/8 48/44/8
f 49/55/1 58/56/1 60/57/1 50/58/1
f 50/58/2 60/57/2 62/59/2 51/60/2
f 51/60/3 62/59/3 64/61/3 52/62/3
f 52/62/4 64/61/4 66/63/4 53/64/4
f 53/64/5 66/63/5 68/65/5 54/66/5
f 54/66/6 68/65/6 70/67/6 55/68/6
f 55/68/7 70/67/7 72/69/7 56/70/7
f 56/71/8 72/72/8 58/56/8 49/55/8
f 57/73/1 59/74/1 60/57/1 58/56/1
f 59/74/2 61/75/2 62/59/2 60/57/2
f 61/75/3 63/76/3 64/61/3 62/59/3
f 63/76/4 65/77/4 66/63/4 64/61/4
f 65/77/5 67/78/5 68/65/5 66/63/5
f 67/78/6 69/79/6 70/67/6 68/65/6
f 69/79/7 71/80/7 72/69/7 70/67/7
f 71/81/8 57/73/8 58/56/8 72/72/8
f 81/82/9 73/83/9 76/84/9 82/85/9
f 84/86/10 80/87/10 87/88/10 88/89/10
f 82/85/10 76/84/10 80/87/10 84/86/10
f 76/84/11 73/83/11 78/90/11 80/91/11
f 81/82/12 74/92/12 77/93/12 83/94/12
f 73/83/12 81/82/12 83/95/12 78/96/12
f 75/97/10 82/85/10 84/98/10 79/99/10
f 77/100/13 79/101/13 84/102/13 83/103/13
f 74/92/14 81/82/14 82/85/14 75/97/14
f 83/103/15 84/102/15 88/104/15 85/105/15
f 80/91/11 78/90/11 86/106/11 87/107/11
f 78/96/12 83/95/12 85/108/12 86/109/12
f 89/110/16 98/111/16 100/112/16 90/113/16
f 90/113/17 100/112/17 102/114/17 91/115/17
f 91/115/18 102/114/18 104/116/18 92/117/18
f 92/117/19 104/116/19 106/118/19 93/119/19
f 93/119/20 106/118/20 108/120/20 94/121/20
f 94/122/21 108/123/21 110/124/21 95/125/21
f 95/125/22 110/124/22 112/126/22 96/127/22
f 96/127/23 112/126/23 98/111/23 89/110/23
f 97/128/16 99/129/16 100/112/16 98/111/16
f 99/129/17 101/130/17 102/114/17 100/112/17
f 101/130/18 103/131/18 104/116/18 102/114/18
f 103/131/19 105/132/19 106/118/19 104/116/19
f 105/132/20 107/133/20 108/120/20 106/118/20
f 107/134/21 109/135/21 110/124/21 108/123/21
f 109/135/22 111/136/22 112/126/22 110/124/22
f 111/136/23 97/128/23 98/111/23 112/126/23
f 113/137/16 122/138/16 124/139/16 114/140/16
f 114/140/17 124/139/17 126/141/17 115/142/17
f 115/142/18 126/141/18 128/143/18 116/144/18
f 116/144/19 128/143/19 130/145/19 117/146/19
f 117/146/20 130/145/20 132/147/20 118/148/20
f 118/148/21 132/147/21 134/149/21 119/150/21
f 119/150/22 134/149/22 136/151/22 120/152/22
f 120/152/23 136/151/23 122/153/23 113/154/23
f 121/155/16 123/156/16 124/139/16 122/138/16
f 123/156/17 125/157/17 126/141/17 124/139/17
f 125/157/18 127/158/18 128/143/18 126/141/18
f 127/158/19 129/159/19 130/145/19 128/143/19
f 129/159/20 131/160/20 132/147/20 130/145/20
f 131/160/21 133/161/21 134/149/21 132/147/21
f 133/161/22 135/162/22 136/151/22 134/149/22
f 135/162/23 121/163/23 122/153/23 136/151/23
f 137/164/1 146/165/1 148/166/1 138/167/1
f 138/167/2 148/166/2 150/168/2 139/169/2
f 139/169/3 150/168/3 152/170/3 140/171/3
f 140/171/4 152/170/4 154/172/4 141/173/4
f 141/173/5 154/172/5 156/174/5 142/175/5
f 142/175/6 156/174/6 158/176/6 143/177/6
f 143/177/7 158/176/7 160/178/7 144/179/7
f 144/180/8 160/181/8 146/165/8 137/164/8
f 145/182/1 147/183/1 148/166/1 146/165/1
f 147/183/2 149/184/2 150/168/2 148/166/2
f 149/184/3 151/185/3 152/170/3 150/168/3
f 151/185/4 153/186/4 154/172/4 152/170/4
f 153/186/5 155/187/5 156/174/5 154/172/5
f 155/187/6 157/188/6 158/176/6 156/174/6
f 157/188/7 159/189/7 160/178/7 158/176/7
f 159/190/8 145/182/8 146/165/8 160/181/8
f 161/191/1 170/192/1 172/193/1 162/194/1
f 162/194/2 172/193/2 174/195/2 163/196/2
f 163/196/3 174/195/3 176/197/3 164/198/3
f 164/198/4 176/197/4 178/199/4 165/200/4
f 165/200/5 178/199/5 180/201/5 166/202/5
f 166/203/6 180/204/6 182/205/6 167/206/6
f 167/206/7 182/205/7 184/207/7 168/208/7
f 168/208/8 184/207/8 170/192/8 161/191/8
f 169/209/1 171/210/1 172/193/1 170/192/1
f 171/210/2 173/211/2 174/195/2 172/193/2
f 173/211/3 175/212/3 176/197/3 174/195/3
f 175/212/4 177/213/4 178/199/4 176/197/4
f 177/213/5 179/214/5 180/201/5 178/199/5
f 179/215/6 181/216/6 182/205/6 180/204/6
f 181/216/7 183/217/7 184/207/7 182/205/7
f 183/217/8 169/209/8 170/192/8 184/207/8
f 185/218/1 194/219/1 196/220/1 186/221/1
f 186/221/2 196/220/2 198/222/2 187/223/2
f 187/223/3 198/222/3 200/224/3 188/225/3
f 188/225/4 200/224/4 202/226/4 189/227/4
f 189/227/5 202/226/5 204/228/5 190/229/5
f 190/229/6 204/228/6 206/230/6 191/231/6
f 191/231/7 206/230/7 208/232/7 192/233/7
f 192/233/8 208/232/8 194/234/8 185/235/8
f 193/236/1 195/237/1 196/220/1 194/219/1
f 195/237/2 197/238/2 198/222/2 196/220/2
f 197/238/3 199/239/3 200/224/3 198/222/3
f 199/239/4 201/240/4 202/226/4 200/224/4
f 201/240/5 203/241/5 204/228/5 202/226/5
f 203/241/6 205/242/6 206/230/6 204/228/6
f 205/242/7 207/243/7 208/232/7 206/230/7
f 207/243/8 193/244/8 194/234/8 208/232/8
f 217/245/9 218/246/9 212/247/9 209/248/9
f 220/249/12 224/250/12 223/251/12 216/252/12
f 218/246/12 220/249/12 216/252/12 212/247/12
f 212/247/11 216/253/11 214/254/11 209/248/11
f 225/255/10 229/256/10 213/257/10 210/258/10
f 209/248/10 214/259/10 219/260/10 217/245/10
f 228/261/12 232/262/12 220/263/12 218/246/12
f 230/264/13 219/265/13 220/266/13 232/267/13
f 226/268/14 228/261/14 218/246/14 217/245/14
f 219/265/15 221/269/15 224/270/15 220/266/15
f 216/253/11 223/271/11 222/272/11 214/254/11
f 214/259/10 222/273/10 221/274/10 219/260/10
f 210/258/14 211/275/14 227/276/14 225/255/14
f 225/277/14 227/278/14 228/279/14 226/280/14
f 213/281/13 229/282/13 231/283/13 215/284/13
f 229/285/13 230/286/13 232/287/13 231/288/13
f 211/275/12 215/289/12 231/290/12 227/276/12
f 227/278/14 233/291/14 234/292/14 228/279/14
f 217/245/10 219/293/10 230/294/10 226/268/10
f 226/280/10 230/295/10 229/296/10 225/277/10
f 233/291/24 237/297/24 238/298/24 234/292/24
f 231/290/15 235/299/15 233/300/15 227/276/15
f 228/261/11 234/301/11 236/302/11 232/262/11
f 232/287/13 236/303/13 235/304/13 231/288/13
f 238/305/11 242/306/11 244/307/11 240/308/11
f 234/301/11 238/305/11 240/308/11 236/302/11
f 236/303/25 240/309/25 239/310/25 235/304/25
f 235/299/15 239/311/15 237/312/15 233/300/15
f 243/313/15 247/314/15 245/315/15 241/316/15
f 240/309/26 244/317/26 243/318/26 239/310/26
f 239/311/15 243/313/15 241/316/15 237/312/15
f 237/297/27 241/319/27 242/320/27 238/298/27
f 241/319/28 245/321/28 246/322/28 242/320/28
f 242/306/11 246/323/11 248/324/11 244/307/11
f 244/317/29 248/325/29 247/326/29 243/318/29
