# Blender v2.78 (sub 0) OBJ File: 'pokojVR.blend'
# www.blender.org
mtllib room.mtl
o Plane.002_Plane.008
v -4.962579 0.000000 6.529412
v -4.962579 0.000000 -5.470589
v -4.962579 3.000000 6.529412
v -4.962579 3.000000 -5.470589
v -4.438656 0.000000 6.529412
v -0.305921 0.000000 6.529412
v -0.305921 0.000000 -5.470589
v -4.438656 0.000000 -5.470589
v -4.438656 3.000000 -5.470589
v -0.305921 3.000000 -5.470589
v -4.438656 3.000000 6.529412
v -0.305921 3.000000 6.529412
v -4.962579 1.597462 6.529412
v -0.305921 1.825069 -5.470588
v -4.438656 1.825069 -5.470588
v -4.962579 1.597462 -5.470588
v -0.305921 1.597462 -5.470588
v -4.438656 1.825069 6.529412
v -4.438656 1.597462 -5.470588
v -4.962579 1.825069 -5.470588
v -4.962579 1.825069 6.529412
v -4.438656 1.597462 6.529412
v -4.962579 0.389961 6.529412
v -0.305921 0.389961 -5.470588
v -4.438656 0.389961 -5.470588
v -4.962579 0.389961 -5.470588
v -4.438656 0.389961 6.529412
v -0.305921 1.597462 6.529412
v -0.305921 1.825069 6.529412
v -0.305921 0.389961 6.529412
v -4.962579 0.000000 6.858646
v -4.962579 3.000000 6.858646
v -4.438656 0.000000 6.858646
v -0.305921 0.000000 6.858646
v -4.438656 3.000000 6.858646
v -0.305921 3.000000 6.858646
v -4.962579 1.597462 6.858646
v -4.438656 1.825069 6.858646
v -4.962579 1.825069 6.858646
v -4.438656 1.597462 6.858646
v -4.962579 0.389961 6.858646
v -4.438656 0.389961 6.858646
v -0.305921 1.597462 6.858646
v -0.305921 1.825069 6.858646
v -0.305921 0.389961 6.858646
v -4.962579 3.300000 6.858646
v -4.438656 3.300000 6.858646
v -0.305921 3.300000 6.858646
v -4.962579 -0.100000 6.858646
v -4.438656 -0.100000 6.858646
v -0.305921 -0.100000 6.858646
v -5.062579 0.000000 6.858646
v -5.062579 3.000000 6.858646
v -5.062579 1.597462 6.858646
v -5.062579 1.825069 6.858646
v -5.062579 0.389961 6.858646
v -5.062579 3.300000 6.858646
v -5.062579 -0.100000 6.858646
v -4.962579 3.300000 -5.811820
v -4.438656 3.300000 -5.811820
v -0.305921 3.300000 -5.811820
v -4.962579 -0.100000 -5.811820
v -4.438656 -0.100000 -5.811820
v -0.305921 -0.100000 -5.811820
v -5.062579 0.000000 -5.811820
v -5.062579 3.000000 -5.811820
v -5.062579 1.597462 -5.811820
v -5.062579 1.825069 -5.811820
v -5.062579 0.389961 -5.811820
v -5.062579 3.300000 -5.811820
v -5.062579 -0.100000 -5.811820
v -0.305921 1.844564 -5.811820
v -0.305921 1.607560 -5.811820
v -4.438656 1.844564 -5.811820
v -4.438656 1.607560 -5.811820
v -4.962579 1.844564 -5.811820
v -4.962579 1.607560 -5.811820
v -0.305921 3.001129 -5.811820
v -4.438656 3.001129 -5.811820
v -4.962579 3.001129 -5.811820
v -0.305921 0.391450 -5.811820
v -4.438656 0.391450 -5.811820
v -4.962579 0.391450 -5.811820
v -0.305921 -0.012683 -5.811820
v -4.438656 -0.012683 -5.811820
v -4.962579 -0.012683 -5.811820
v 4.962579 0.000000 6.529412
v 4.962579 0.000000 -5.470589
v 4.962579 3.000000 6.529412
v 4.962579 3.000000 -5.470589
v 4.438656 0.000000 6.529412
v 0.305921 0.000000 6.529412
v 0.305921 0.000000 -5.470589
v 4.438656 0.000000 -5.470589
v 4.438656 3.000000 -5.470589
v 0.305921 3.000000 -5.470589
v 4.438656 3.000000 6.529412
v 0.305921 3.000000 6.529412
v 0.000000 0.000000 6.529412
v 0.000000 0.000000 -5.470589
v 0.000000 3.000000 -5.470589
v 0.000000 3.000000 6.529412
v 4.962579 1.597462 6.529412
v 0.305921 1.825069 -5.470588
v 4.438656 1.825069 -5.470588
v 4.962579 1.597462 -5.470588
v 0.305921 1.597462 -5.470588
v 4.438656 1.825069 6.529412
v 4.438656 1.597462 -5.470588
v 0.000000 1.825069 -5.470588
v 0.000000 1.597462 -5.470588
v 4.962579 1.825069 -5.470588
v 4.962579 1.825069 6.529412
v 4.438656 1.597462 6.529412
v 4.962579 0.389961 6.529412
v 0.305921 0.389961 -5.470588
v 4.438656 0.389961 -5.470588
v 0.000000 0.389961 -5.470588
v 4.962579 0.389961 -5.470588
v 4.438656 0.389961 6.529412
v 0.305921 1.597462 6.529412
v 0.305921 1.825069 6.529412
v 0.000000 1.597462 6.529412
v 0.000000 1.825069 6.529412
v 0.305921 0.389961 6.529412
v 0.000000 0.389961 6.529412
v 4.962579 0.000000 6.858646
v 4.962579 3.000000 6.858646
v 4.438656 0.000000 6.858646
v 0.305921 0.000000 6.858646
v 4.438656 3.000000 6.858646
v 0.305921 3.000000 6.858646
v 0.000000 0.000000 6.858646
v 0.000000 3.000000 6.858646
v 4.962579 1.597462 6.858646
v 4.438656 1.825069 6.858646
v 4.962579 1.825069 6.858646
v 4.438656 1.597462 6.858646
v 4.962579 0.389961 6.858646
v 4.438656 0.389961 6.858646
v 0.305921 1.597462 6.858646
v 0.305921 1.825069 6.858646
v 0.000000 1.597462 6.858646
v 0.000000 1.825069 6.858646
v 0.305921 0.389961 6.858646
v 0.000000 0.389961 6.858646
v 4.962579 3.300000 6.858646
v 4.438656 3.300000 6.858646
v 0.305921 3.300000 6.858646
v 0.000000 3.300000 6.858646
v 4.962579 -0.100000 6.858646
v 4.438656 -0.100000 6.858646
v 0.305921 -0.100000 6.858646
v 0.000000 -0.100000 6.858646
v 5.062579 0.000000 6.858646
v 5.062579 3.000000 6.858646
v 5.062579 1.597462 6.858646
v 5.062579 1.825069 6.858646
v 5.062579 0.389961 6.858646
v 5.062579 3.300000 6.858646
v 5.062579 -0.100000 6.858646
v 4.962579 3.300000 -5.811820
v 4.438656 3.300000 -5.811820
v 0.305921 3.300000 -5.811820
v 0.000000 3.300000 -5.811820
v 4.962579 -0.100000 -5.811820
v 4.438656 -0.100000 -5.811820
v 0.305921 -0.100000 -5.811820
v 0.000000 -0.100000 -5.811820
v 5.062579 0.000000 -5.811820
v 5.062579 3.000000 -5.811820
v 5.062579 1.597462 -5.811820
v 5.062579 1.825069 -5.811820
v 5.062579 0.389961 -5.811820
v 5.062579 3.300000 -5.811820
v 5.062579 -0.100000 -5.811820
v 0.305921 1.844564 -5.811820
v 0.305921 1.607560 -5.811820
v 0.000000 1.844564 -5.811820
v 0.000000 1.607560 -5.811820
v 4.438656 1.844564 -5.811820
v 4.438656 1.607560 -5.811820
v 4.962579 1.844564 -5.811820
v 4.962579 1.607560 -5.811820
v 0.305921 3.001129 -5.811820
v 0.000000 3.001129 -5.811820
v 4.438656 3.001129 -5.811820
v 4.962579 3.001129 -5.811820
v 0.305921 0.391450 -5.811820
v 0.000000 0.391450 -5.811820
v 4.438656 0.391450 -5.811820
v 4.962579 0.391450 -5.811820
v 0.305921 -0.012683 -5.811820
v 0.000000 -0.012683 -5.811820
v 4.438656 -0.012683 -5.811820
v 4.962579 -0.012683 -5.811820
vt 0.0002 0.9120
vt 0.3743 0.9120
vt 0.3743 0.9487
vt 0.0002 0.9487
vt 0.3906 0.9120
vt 0.3906 0.9487
vt 0.5290 0.9120
vt 0.5290 0.9487
vt 0.5194 0.9487
vt 0.5194 0.9120
vt 0.8582 0.0002
vt 0.8582 0.0166
vt 0.4841 0.0166
vt 0.4841 0.0002
vt 0.8582 0.1454
vt 0.4841 0.1454
vt 0.3906 0.7130
vt 0.3906 0.6967
vt 0.7647 0.6967
vt 0.7647 0.7130
vt 0.3906 0.5678
vt 0.7647 0.5678
vt 0.3906 0.5583
vt 0.7647 0.5583
vt 0.8582 0.1549
vt 0.4841 0.1549
vt 0.4475 0.1549
vt 0.4475 0.1454
vt 0.4028 0.0002
vt 0.4028 0.0166
vt 0.3906 0.0166
vt 0.3906 0.0002
vt 0.4475 0.0002
vt 0.4475 0.0166
vt 0.4404 0.0166
vt 0.4404 0.0002
vt 0.3743 0.8673
vt 0.3906 0.8673
vt 0.3906 0.9050
vt 0.3743 0.9050
vt 0.5290 0.9050
vt 0.5194 0.9050
vt 0.5194 0.8673
vt 0.5290 0.8673
vt 0.0002 0.8673
vt 0.0002 0.9050
vt 0.0002 0.8552
vt 0.3743 0.8552
vt 0.3906 0.8552
vt 0.5290 0.8552
vt 0.5194 0.8552
vt 0.4028 0.1549
vt 0.4028 0.1454
vt 0.4404 0.1454
vt 0.4404 0.1549
vt 0.3906 0.1549
vt 0.3906 0.1454
vt 0.5484 0.7735
vt 0.5484 0.8101
vt 0.5389 0.8101
vt 0.5389 0.7735
vt 0.3937 0.7287
vt 0.3937 0.7166
vt 0.4101 0.7166
vt 0.4101 0.7287
vt 0.3937 0.7735
vt 0.3937 0.7664
vt 0.4101 0.7664
vt 0.4101 0.7735
vt 0.3937 0.8101
vt 0.4101 0.8101
vt 0.5484 0.7287
vt 0.5484 0.7664
vt 0.5389 0.7664
vt 0.5389 0.7287
vt 0.5484 0.7166
vt 0.5389 0.7166
vt 0.9056 0.5231
vt 0.7651 0.5320
vt 0.7824 0.5176
vt 0.8889 0.5137
vt 0.7651 0.4680
vt 0.7786 0.4806
vt 0.8972 0.4683
vt 0.8871 0.4782
vt 0.8433 0.7880
vt 0.8481 0.8442
vt 0.8321 0.8340
vt 0.8325 0.7974
vt 0.7120 0.8442
vt 0.7247 0.8316
vt 0.7067 0.7788
vt 0.7253 0.7933
vt 0.5389 0.8194
vt 0.4101 0.8194
vt 0.5484 0.8194
vt 0.3937 0.8194
vt 0.5389 0.7135
vt 0.5484 0.7135
vt 0.4101 0.7135
vt 0.3937 0.7135
vt 0.3906 0.8194
vt 0.3906 0.8101
vt 0.3906 0.7166
vt 0.3906 0.7135
vt 0.3906 0.7735
vt 0.3906 0.7287
vt 0.3906 0.7664
vt 0.0003 0.3284
vt 0.3900 0.3284
vt 0.3900 0.3645
vt 0.0003 0.3645
vt 0.0003 0.3191
vt 0.3900 0.3191
vt 0.0003 0.4207
vt 0.3900 0.4207
vt 0.3901 0.4275
vt 0.0003 0.4275
vt 0.0002 0.3123
vt 0.3900 0.3123
vt 0.0003 0.4087
vt 0.3900 0.4087
vt 0.0004 0.4343
vt 0.3901 0.4343
vt 0.3901 0.4504
vt 0.0004 0.4504
vt 0.0002 0.2962
vt 0.3900 0.2962
vt 0.3900 0.3715
vt 0.0003 0.3715
vt 0.3901 0.5775
vt 0.0004 0.5775
vt 0.0002 0.1597
vt 0.3900 0.1597
vt 0.3900 0.1691
vt 0.0002 0.1691
vt 0.3901 0.5869
vt 0.0004 0.5869
vt 0.8420 0.9584
vt 0.8420 0.9611
vt 0.8324 0.9611
vt 0.8324 0.9584
vt 0.7036 0.9611
vt 0.7036 0.9584
vt 0.6873 0.9611
vt 0.6873 0.9584
vt 0.7036 0.8645
vt 0.7036 0.9005
vt 0.6873 0.9005
vt 0.6873 0.8645
vt 0.7036 0.9079
vt 0.6873 0.9079
vt 0.8324 0.8645
vt 0.8324 0.9005
vt 0.8324 0.9079
vt 0.8420 0.8645
vt 0.8420 0.9005
vt 0.8420 0.9079
vt 0.6841 0.9082
vt 0.6841 0.9011
vt 0.8420 0.8552
vt 0.8324 0.8552
vt 0.7036 0.8552
vt 0.6873 0.8552
vt 0.6841 0.8645
vt 0.6841 0.8552
vt 0.7036 0.9458
vt 0.6873 0.9458
vt 0.8324 0.9458
vt 0.8420 0.9458
vt 0.6841 0.9459
vt 0.6841 0.9580
vt 0.6841 0.9611
vt 0.4841 0.3462
vt 0.4841 0.3096
vt 0.8582 0.3096
vt 0.8582 0.3462
vt 0.6673 0.9120
vt 0.6837 0.9120
vt 0.6837 0.9487
vt 0.6673 0.9487
vt 0.5385 0.9120
vt 0.5385 0.9487
vt 0.4841 0.2933
vt 0.8582 0.2933
vt 0.4841 0.1645
vt 0.8582 0.1645
vt 0.3906 0.4036
vt 0.7647 0.4036
vt 0.7647 0.4199
vt 0.3906 0.4199
vt 0.7647 0.5488
vt 0.3906 0.5488
vt 0.4475 0.1645
vt 0.4028 0.3096
vt 0.3906 0.3096
vt 0.3906 0.2933
vt 0.4028 0.2933
vt 0.4475 0.3096
vt 0.4404 0.3096
vt 0.4404 0.2933
vt 0.4475 0.2933
vt 0.6837 0.8673
vt 0.6837 0.9050
vt 0.6673 0.9050
vt 0.6673 0.8673
vt 0.5385 0.9050
vt 0.5385 0.8673
vt 0.4841 0.3910
vt 0.4841 0.3533
vt 0.8582 0.3533
vt 0.8582 0.3910
vt 0.4841 0.4031
vt 0.8582 0.4031
vt 0.6673 0.8552
vt 0.6837 0.8552
vt 0.5385 0.8552
vt 0.4404 0.1645
vt 0.4028 0.1645
vt 0.3906 0.1645
vt 0.5579 0.7735
vt 0.5579 0.8101
vt 0.7031 0.7287
vt 0.6868 0.7287
vt 0.6868 0.7166
vt 0.7031 0.7166
vt 0.7031 0.7735
vt 0.6868 0.7735
vt 0.6868 0.7664
vt 0.7031 0.7664
vt 0.7031 0.8101
vt 0.6868 0.8101
vt 0.5579 0.7287
vt 0.5579 0.7664
vt 0.5579 0.7166
vt 0.7651 0.4675
vt 0.7812 0.4571
vt 0.8877 0.4542
vt 0.9059 0.4675
vt 0.9018 0.4036
vt 0.8892 0.4170
vt 0.7700 0.4123
vt 0.7808 0.4215
vt 0.7152 0.7135
vt 0.7253 0.7236
vt 0.7232 0.7602
vt 0.7067 0.7692
vt 0.8306 0.7649
vt 0.8425 0.7783
vt 0.8326 0.7267
vt 0.8521 0.7135
vt 0.6868 0.8194
vt 0.5579 0.8194
vt 0.7031 0.8194
vt 0.5579 0.7135
vt 0.6868 0.7135
vt 0.7031 0.7135
vt 0.7062 0.8101
vt 0.7062 0.8194
vt 0.7062 0.7135
vt 0.7062 0.7166
vt 0.7062 0.7735
vt 0.7062 0.7287
vt 0.7062 0.7664
vt 0.0002 0.8455
vt 0.0002 0.8093
vt 0.3900 0.8093
vt 0.3900 0.8455
vt 0.0002 0.8547
vt 0.3900 0.8547
vt 0.0002 0.7532
vt 0.0003 0.7464
vt 0.3901 0.7464
vt 0.3900 0.7532
vt 0.0002 0.0070
vt 0.0003 0.0002
vt 0.3901 0.0002
vt 0.3900 0.0070
vt 0.0002 0.7652
vt 0.3900 0.7652
vt 0.0004 0.7396
vt 0.0004 0.7235
vt 0.3901 0.7235
vt 0.3901 0.7396
vt 0.0002 0.0232
vt 0.3900 0.0232
vt 0.0002 0.8023
vt 0.3900 0.8023
vt 0.0004 0.5963
vt 0.3901 0.5963
vt 0.0002 0.1503
vt 0.3900 0.1503
vt 0.8515 0.9584
vt 0.8515 0.9611
vt 0.9803 0.9584
vt 0.9803 0.9611
vt 0.9966 0.9584
vt 0.9966 0.9611
vt 0.9803 0.8645
vt 0.9966 0.8645
vt 0.9966 0.9005
vt 0.9803 0.9005
vt 0.9966 0.9079
vt 0.9803 0.9079
vt 0.8515 0.8645
vt 0.8515 0.9005
vt 0.8515 0.9079
vt 0.9998 0.9082
vt 0.9998 0.9011
vt 0.8515 0.8552
vt 0.9803 0.8552
vt 0.9966 0.8552
vt 0.9998 0.8645
vt 0.9998 0.8552
vt 0.9966 0.9458
vt 0.9803 0.9458
vt 0.8515 0.9458
vt 0.9998 0.9459
vt 0.9998 0.9580
vt 0.9998 0.9611
vn 1.0000 0.0000 0.0000
vn 0.0000 0.0000 1.0000
vn 0.0000 -1.0000 0.0000
vn 0.0000 1.0000 0.0000
vn 0.0000 0.0000 -1.0000
vn -1.0000 0.0000 0.0000
usemtl None
s off
f 21/1/1 20/2/1 4/3/1 3/4/1
f 15/5/2 9/6/2 4/3/2 20/2/2
f 110/7/2 101/8/2 10/9/2 14/10/2
f 14/10/2 10/9/2 9/6/2 15/5/2
f 4/11/3 9/12/3 11/13/3 3/14/3
f 9/12/3 10/15/3 12/16/3 11/13/3
f 1/17/4 5/18/4 8/19/4 2/20/4
f 5/18/4 6/21/4 7/22/4 8/19/4
f 6/21/4 99/23/4 100/24/4 7/22/4
f 10/15/3 101/25/3 102/26/3 12/16/3
f 124/27/5 29/28/5 12/16/5 102/26/5
f 23/29/5 27/30/5 5/31/5 1/32/5
f 21/33/5 18/34/5 22/35/5 13/36/5
f 26/37/2 25/38/2 19/39/2 16/40/2
f 111/41/2 110/7/2 14/10/2 17/42/2
f 3/14/5 11/13/5 18/34/5 21/33/5
f 17/42/2 24/43/2 118/44/2 111/41/2
f 19/39/2 25/38/2 24/43/2 17/42/2
f 17/42/2 14/10/2 15/5/2 19/39/2
f 23/29/5 13/36/5 22/35/5 27/30/5
f 19/39/2 15/5/2 20/2/2 16/40/2
f 23/45/1 26/37/1 16/40/1 13/46/1
f 1/47/1 2/48/1 26/37/1 23/45/1
f 8/49/2 25/38/2 26/37/2 2/48/2
f 100/50/2 118/44/2 24/43/2 7/51/2
f 7/51/2 24/43/2 25/38/2 8/49/2
f 13/46/1 16/40/1 20/2/1 21/1/1
f 126/52/5 30/53/5 28/54/5 123/55/5
f 123/55/5 28/54/5 29/28/5 124/27/5
f 18/34/5 29/28/5 28/54/5 22/35/5
f 99/56/5 6/57/5 30/53/5 126/52/5
f 6/57/5 5/31/5 27/30/5 30/53/5
f 144/58/2 134/59/2 36/60/2 44/61/2
f 41/62/2 31/63/2 33/64/2 42/65/2
f 39/66/2 37/67/2 40/68/2 38/69/2
f 32/70/2 39/66/2 38/69/2 35/71/2
f 41/62/2 42/65/2 40/68/2 37/67/2
f 146/72/2 143/73/2 43/74/2 45/75/2
f 143/73/2 144/58/2 44/61/2 43/74/2
f 38/69/2 40/68/2 43/74/2 44/61/2
f 133/76/2 146/72/2 45/75/2 34/77/2
f 34/77/2 45/75/2 42/65/2 33/64/2
f 29/78/4 18/79/4 38/80/4 44/81/4
f 11/82/1 35/83/1 38/80/1 18/79/1
f 12/84/6 29/78/6 44/81/6 36/85/6
f 12/84/3 36/85/3 35/83/3 11/82/3
f 28/86/6 30/87/6 45/88/6 43/89/6
f 30/87/4 27/90/4 42/91/4 45/88/4
f 27/90/1 22/92/1 40/93/1 42/91/1
f 28/86/3 43/89/3 40/93/3 22/92/3
f 35/71/2 36/60/2 48/94/2 47/95/2
f 134/59/2 150/96/2 48/94/2 36/60/2
f 35/71/2 47/95/2 46/97/2 32/70/2
f 34/77/2 51/98/2 154/99/2 133/76/2
f 33/64/2 50/100/2 51/98/2 34/77/2
f 31/63/2 49/101/2 50/100/2 33/64/2
f 46/97/2 57/102/2 53/103/2 32/70/2
f 31/63/2 52/104/2 58/105/2 49/101/2
f 32/70/2 53/103/2 55/106/2 39/66/2
f 41/62/2 56/107/2 52/104/2 31/63/2
f 37/67/2 54/108/2 56/107/2 41/62/2
f 39/66/2 55/106/2 54/108/2 37/67/2
f 53/109/6 66/110/6 68/111/6 55/112/6
f 57/113/6 70/114/6 66/110/6 53/109/6
f 52/115/6 65/116/6 71/117/6 58/118/6
f 46/119/4 59/120/4 70/114/4 57/113/4
f 56/121/6 69/122/6 65/116/6 52/115/6
f 49/123/3 62/124/3 63/125/3 50/126/3
f 47/127/4 60/128/4 59/120/4 46/119/4
f 55/112/6 68/111/6 67/129/6 54/130/6
f 50/126/3 63/125/3 64/131/3 51/132/3
f 58/118/3 71/117/3 62/124/3 49/123/3
f 150/133/4 165/134/4 61/135/4 48/136/4
f 54/130/6 67/129/6 69/122/6 56/121/6
f 51/132/3 64/131/3 169/137/3 154/138/3
f 47/127/4 48/136/4 61/135/4 60/128/4
f 194/139/5 169/140/5 64/141/5 84/142/5
f 84/142/5 64/141/5 63/143/5 85/144/5
f 85/144/5 63/143/5 62/145/5 86/146/5
f 79/147/5 74/148/5 76/149/5 80/150/5
f 74/148/5 75/151/5 77/152/5 76/149/5
f 78/153/5 72/154/5 74/148/5 79/147/5
f 72/154/5 73/155/5 75/151/5 74/148/5
f 186/156/5 179/157/5 72/154/5 78/153/5
f 179/157/5 180/158/5 73/155/5 72/154/5
f 67/159/5 68/160/5 76/149/5 77/152/5
f 165/161/5 186/156/5 78/153/5 61/162/5
f 61/162/5 78/153/5 79/147/5 60/163/5
f 60/163/5 79/147/5 80/150/5 59/164/5
f 66/165/5 70/166/5 59/164/5 80/150/5
f 68/160/5 66/165/5 80/150/5 76/149/5
f 75/151/5 82/167/5 83/168/5 77/152/5
f 73/155/5 81/169/5 82/167/5 75/151/5
f 180/158/5 190/170/5 81/169/5 73/155/5
f 82/167/5 85/144/5 86/146/5 83/168/5
f 81/169/5 84/142/5 85/144/5 82/167/5
f 190/170/5 194/139/5 84/142/5 81/169/5
f 69/171/5 67/159/5 77/152/5 83/168/5
f 65/172/5 69/171/5 83/168/5 86/146/5
f 71/173/5 65/172/5 86/146/5 62/145/5
f 113/174/6 89/175/6 90/176/6 112/177/6
f 105/178/2 112/179/2 90/180/2 95/181/2
f 110/7/2 104/182/2 96/183/2 101/8/2
f 104/182/2 105/178/2 95/181/2 96/183/2
f 90/176/3 89/175/3 97/184/3 95/185/3
f 95/185/3 97/184/3 98/186/3 96/187/3
f 87/188/4 88/189/4 94/190/4 91/191/4
f 91/191/4 94/190/4 93/192/4 92/193/4
f 92/193/4 93/192/4 100/24/4 99/23/4
f 96/187/3 98/186/3 102/26/3 101/25/3
f 124/27/5 102/26/5 98/186/5 122/194/5
f 115/195/5 87/196/5 91/197/5 120/198/5
f 113/199/5 103/200/5 114/201/5 108/202/5
f 119/203/2 106/204/2 109/205/2 117/206/2
f 111/41/2 107/207/2 104/182/2 110/7/2
f 89/175/5 113/199/5 108/202/5 97/184/5
f 107/207/2 111/41/2 118/44/2 116/208/2
f 109/205/2 107/207/2 116/208/2 117/206/2
f 107/207/2 109/205/2 105/178/2 104/182/2
f 115/195/5 120/198/5 114/201/5 103/200/5
f 109/205/2 106/204/2 112/179/2 105/178/2
f 115/209/6 103/210/6 106/211/6 119/212/6
f 87/213/6 115/209/6 119/212/6 88/214/6
f 94/215/2 88/216/2 119/203/2 117/206/2
f 100/50/2 93/217/2 116/208/2 118/44/2
f 93/217/2 94/215/2 117/206/2 116/208/2
f 103/210/6 113/174/6 112/177/6 106/211/6
f 126/52/5 123/55/5 121/218/5 125/219/5
f 123/55/5 124/27/5 122/194/5 121/218/5
f 108/202/5 114/201/5 121/218/5 122/194/5
f 99/56/5 126/52/5 125/219/5 92/220/5
f 92/220/5 125/219/5 120/198/5 91/197/5
f 144/58/2 142/221/2 132/222/2 134/59/2
f 139/223/2 140/224/2 129/225/2 127/226/2
f 137/227/2 136/228/2 138/229/2 135/230/2
f 128/231/2 131/232/2 136/228/2 137/227/2
f 139/223/2 135/230/2 138/229/2 140/224/2
f 146/72/2 145/233/2 141/234/2 143/73/2
f 143/73/2 141/234/2 142/221/2 144/58/2
f 136/228/2 142/221/2 141/234/2 138/229/2
f 133/76/2 130/235/2 145/233/2 146/72/2
f 130/235/2 129/225/2 140/224/2 145/233/2
f 122/236/4 142/237/4 136/238/4 108/239/4
f 97/240/6 108/239/6 136/238/6 131/241/6
f 98/242/1 132/243/1 142/237/1 122/236/1
f 98/242/3 97/240/3 131/241/3 132/243/3
f 121/244/1 141/245/1 145/246/1 125/247/1
f 125/247/4 145/246/4 140/248/4 120/249/4
f 120/249/6 140/248/6 138/250/6 114/251/6
f 121/244/3 114/251/3 138/250/3 141/245/3
f 131/232/2 148/252/2 149/253/2 132/222/2
f 134/59/2 132/222/2 149/253/2 150/96/2
f 131/232/2 128/231/2 147/254/2 148/252/2
f 130/235/2 133/76/2 154/99/2 153/255/2
f 129/225/2 130/235/2 153/255/2 152/256/2
f 127/226/2 129/225/2 152/256/2 151/257/2
f 147/254/2 128/231/2 156/258/2 160/259/2
f 127/226/2 151/257/2 161/260/2 155/261/2
f 128/231/2 137/227/2 158/262/2 156/258/2
f 139/223/2 127/226/2 155/261/2 159/263/2
f 135/230/2 139/223/2 159/263/2 157/264/2
f 137/227/2 135/230/2 157/264/2 158/262/2
f 156/265/1 158/266/1 173/267/1 171/268/1
f 160/269/1 156/265/1 171/268/1 175/270/1
f 155/271/1 161/272/1 176/273/1 170/274/1
f 147/275/4 160/276/4 175/277/4 162/278/4
f 159/279/1 155/271/1 170/274/1 174/280/1
f 151/281/3 152/282/3 167/283/3 166/284/3
f 148/285/4 147/275/4 162/278/4 163/286/4
f 158/266/1 157/287/1 172/288/1 173/267/1
f 152/282/3 153/289/3 168/290/3 167/283/3
f 161/272/3 151/281/3 166/284/3 176/273/3
f 150/133/4 149/291/4 164/292/4 165/134/4
f 157/287/1 159/279/1 174/280/1 172/288/1
f 153/289/3 154/138/3 169/137/3 168/290/3
f 148/285/4 163/286/4 164/292/4 149/291/4
f 194/139/5 193/293/5 168/294/5 169/140/5
f 193/293/5 195/295/5 167/296/5 168/294/5
f 195/295/5 196/297/5 166/298/5 167/296/5
f 187/299/5 188/300/5 183/301/5 181/302/5
f 181/302/5 183/301/5 184/303/5 182/304/5
f 185/305/5 187/299/5 181/302/5 177/306/5
f 177/306/5 181/302/5 182/304/5 178/307/5
f 186/156/5 185/305/5 177/306/5 179/157/5
f 179/157/5 177/306/5 178/307/5 180/158/5
f 172/308/5 184/303/5 183/301/5 173/309/5
f 165/161/5 164/310/5 185/305/5 186/156/5
f 164/310/5 163/311/5 187/299/5 185/305/5
f 163/311/5 162/312/5 188/300/5 187/299/5
f 171/313/5 188/300/5 162/312/5 175/314/5
f 173/309/5 183/301/5 188/300/5 171/313/5
f 182/304/5 184/303/5 192/315/5 191/316/5
f 178/307/5 182/304/5 191/316/5 189/317/5
f 180/158/5 178/307/5 189/317/5 190/170/5
f 191/316/5 192/315/5 196/297/5 195/295/5
f 189/317/5 191/316/5 195/295/5 193/293/5
f 190/170/5 189/317/5 193/293/5 194/139/5
f 174/318/5 192/315/5 184/303/5 172/308/5
f 170/319/5 196/297/5 192/315/5 174/318/5
f 176/320/5 166/298/5 196/297/5 170/319/5
