# Blender v2.78 (sub 0) OBJ File: 'pokojVR.blend'
# www.blender.org
mtllib stool.mtl
o Plane.006_Plane.002
v -0.100000 0.196045 0.100000
v 0.100000 0.196045 0.100000
v -0.100000 0.196045 -0.100000
v 0.100000 0.196045 -0.100000
v -0.100000 0.177537 -0.100000
v -0.100000 0.177537 0.100000
v 0.100000 0.177537 0.100000
v 0.100000 0.177537 -0.100000
v -0.033333 0.196045 0.100000
v 0.033333 0.196045 0.100000
v 0.033333 0.196045 -0.100000
v -0.033333 0.196045 -0.100000
v -0.033333 0.177537 0.100000
v 0.033333 0.177537 0.100000
v 0.033333 0.177537 -0.100000
v -0.033333 0.177537 -0.100000
v -0.100000 0.196045 -0.034010
v -0.100000 0.196045 0.032657
v 0.100000 0.196045 0.032657
v 0.100000 0.196045 -0.034010
v -0.100000 0.177537 -0.034010
v -0.100000 0.177537 0.032657
v 0.100000 0.177537 0.032657
v 0.100000 0.177537 -0.034010
v -0.033333 0.177537 0.032657
v -0.033333 0.177537 -0.034010
v 0.033333 0.177537 0.032657
v 0.033333 0.177537 -0.034010
v -0.033333 0.196045 -0.034010
v -0.033333 0.196045 0.032657
v 0.033333 0.196045 -0.034010
v 0.033333 0.196045 0.032657
v -0.100000 0.196045 0.066328
v -0.100000 0.177537 0.066328
v -0.033333 0.196045 0.066328
v 0.033333 0.196045 0.066328
v 0.100000 0.196045 0.066328
v 0.100000 0.177537 0.066328
v -0.033333 0.177537 0.066328
v 0.033333 0.177537 0.066328
v 0.100000 0.196045 -0.067005
v 0.100000 0.177537 -0.067005
v -0.033333 0.177537 -0.067005
v 0.033333 0.177537 -0.067005
v -0.100000 0.196045 -0.067005
v -0.100000 0.177537 -0.067005
v -0.033333 0.196045 -0.067005
v 0.033333 0.196045 -0.067005
v 0.066667 0.196045 0.100000
v 0.066667 0.177537 0.100000
v 0.066667 0.196045 -0.100000
v 0.066667 0.177537 -0.100000
v 0.066667 0.177537 0.032657
v 0.066667 0.177537 -0.034010
v 0.066667 0.196045 0.032657
v 0.066667 0.196045 -0.034010
v 0.066667 0.196045 0.066328
v 0.066667 0.177537 0.066328
v 0.066667 0.177537 -0.067005
v 0.066667 0.196045 -0.067005
v -0.066667 0.196045 -0.100000
v -0.066667 0.177537 -0.100000
v -0.066667 0.196045 0.100000
v -0.066667 0.177537 0.100000
v -0.066667 0.196045 0.032657
v -0.066667 0.196045 -0.034010
v -0.066667 0.177537 0.032657
v -0.066667 0.177537 -0.034010
v -0.066667 0.177537 0.066328
v -0.066667 0.196045 0.066328
v -0.066667 0.196045 -0.067005
v -0.066667 0.177537 -0.067005
v -0.033333 -0.008286 0.066328
v -0.033333 -0.008286 0.032657
v 0.033333 -0.008286 0.066328
v 0.033333 -0.008286 0.032657
v 0.066667 -0.008286 0.032657
v 0.066667 -0.008286 -0.034010
v 0.033333 -0.008286 -0.034010
v 0.066667 -0.008286 0.066328
v -0.033333 -0.008286 -0.034010
v -0.033333 -0.008286 -0.067005
v 0.033333 -0.008286 -0.067005
v 0.066667 -0.008286 -0.067005
v -0.066667 -0.008286 0.032657
v -0.066667 -0.008286 -0.034010
v -0.066667 -0.008286 0.066328
v -0.066667 -0.008286 -0.067005
vt 0.2988 0.4181
vt 0.3585 0.4181
vt 0.3585 0.3590
vt 0.2988 0.3590
vt 0.0600 0.0593
vt 0.0600 0.0003
vt 0.0003 0.0003
vt 0.0003 0.0593
vt 0.2988 0.7850
vt 0.2988 0.8182
vt 0.3585 0.8182
vt 0.3585 0.7850
vt 0.2994 0.7514
vt 0.2994 0.7845
vt 0.3585 0.7845
vt 0.3585 0.7514
vt 0.0606 0.7509
vt 0.0606 0.7177
vt 0.0003 0.7177
vt 0.0003 0.7509
vt 0.0600 0.8518
vt 0.0600 0.8187
vt 0.0003 0.8187
vt 0.0003 0.8518
vt 0.2988 0.8518
vt 0.2988 0.8187
vt 0.2391 0.8187
vt 0.2391 0.8518
vt 0.1197 0.8187
vt 0.1197 0.8518
vt 0.0600 0.7850
vt 0.0600 0.8182
vt 0.1197 0.8182
vt 0.1197 0.7850
vt 0.2391 0.8182
vt 0.2391 0.7850
vt 0.2988 0.0593
vt 0.2988 0.0003
vt 0.2391 0.0003
vt 0.2391 0.0593
vt 0.1197 0.0003
vt 0.1197 0.0593
vt 0.0600 0.4181
vt 0.1197 0.4181
vt 0.1197 0.3590
vt 0.0600 0.3590
vt 0.2391 0.4181
vt 0.2391 0.3590
vt 0.1197 0.6569
vt 0.2391 0.6569
vt 0.2391 0.5966
vt 0.1197 0.5966
vt 0.2391 0.4772
vt 0.1197 0.4772
vt 0.0600 0.6569
vt 0.0600 0.5966
vt 0.0600 0.4772
vt 0.2391 0.2982
vt 0.2391 0.2379
vt 0.1197 0.2379
vt 0.1197 0.2982
vt 0.2391 0.1184
vt 0.1197 0.1184
vt 0.7774 0.3331
vt 0.7774 0.0003
vt 0.7183 0.0003
vt 0.7183 0.3331
vt 0.2988 0.2379
vt 0.2988 0.1184
vt 0.2994 0.7509
vt 0.2994 0.7177
vt 0.2403 0.7177
vt 0.2403 0.7509
vt 0.1209 0.7177
vt 0.1209 0.7509
vt 0.0606 0.7514
vt 0.0606 0.7845
vt 0.1209 0.7845
vt 0.1209 0.7514
vt 0.2403 0.7845
vt 0.2403 0.7514
vt 0.0600 0.2982
vt 0.0600 0.2379
vt 0.0003 0.2379
vt 0.0003 0.2982
vt 0.0600 0.1184
vt 0.0003 0.1184
vt 0.2988 0.6569
vt 0.3585 0.6569
vt 0.3585 0.5966
vt 0.2988 0.5966
vt 0.3585 0.4772
vt 0.2988 0.4772
vt 0.2988 0.7172
vt 0.3585 0.7172
vt 0.0600 0.3585
vt 0.0003 0.3585
vt 0.0003 0.7514
vt 0.0003 0.7845
vt 0.2988 0.3585
vt 0.2988 0.2982
vt 0.2391 0.3585
vt 0.1197 0.3585
vt 0.0600 0.7172
vt 0.1197 0.7172
vt 0.2391 0.7172
vt 0.3585 0.7509
vt 0.3585 0.7177
vt 0.4790 0.6664
vt 0.4790 0.3336
vt 0.4193 0.3336
vt 0.4193 0.6664
vt 0.5990 0.3331
vt 0.5990 0.0003
vt 0.5393 0.0003
vt 0.5393 0.3331
vt 0.6586 0.3331
vt 0.6586 0.0003
vt 0.5995 0.0003
vt 0.5995 0.3331
vt 0.3585 0.8518
vt 0.3585 0.8187
vt 0.3585 0.1184
vt 0.3585 0.0593
vt 0.0003 0.4772
vt 0.0003 0.4181
vt 0.0003 0.7172
vt 0.0003 0.6569
vt 0.3585 0.3585
vt 0.3585 0.2982
vt 0.3585 0.2379
vt 0.0003 0.5966
vt 0.0003 0.3590
vt 0.3585 0.0003
vt 0.0003 0.7850
vt 0.0003 0.8182
vt 0.5995 0.6664
vt 0.6598 0.6664
vt 0.6598 0.6067
vt 0.5995 0.6067
vt 0.5995 0.5471
vt 0.5995 0.6062
vt 0.6592 0.6062
vt 0.6592 0.5471
vt 0.5995 0.4875
vt 0.5995 0.5466
vt 0.6592 0.5466
vt 0.6592 0.4875
vt 0.5971 0.7266
vt 0.6574 0.7266
vt 0.6574 0.6669
vt 0.5971 0.6669
vt 0.4790 0.3331
vt 0.4790 0.0003
vt 0.4193 0.0003
vt 0.4193 0.3331
vt 0.8371 0.3331
vt 0.8371 0.0003
vt 0.4181 0.9997
vt 0.4181 0.6669
vt 0.3590 0.6669
vt 0.3590 0.9997
vt 0.5966 0.9997
vt 0.5966 0.6669
vt 0.5369 0.6669
vt 0.5369 0.9997
vt 0.5990 0.6664
vt 0.5990 0.3336
vt 0.5393 0.3336
vt 0.5393 0.6664
vt 0.3590 0.3336
vt 0.3590 0.6664
vt 0.3590 0.0003
vt 0.3590 0.3331
vt 0.4778 0.9997
vt 0.4778 0.6669
vn 0.0000 1.0000 0.0000
vn 0.0000 -1.0000 0.0000
vn 0.0000 0.0000 1.0000
vn 1.0000 0.0000 0.0000
vn -1.0000 0.0000 0.0000
vn 0.0000 0.0000 -1.0000
usemtl None
s off
f 60/1/1 41/2/1 4/3/1 51/4/1
f 59/5/2 52/6/2 8/7/2 42/8/2
f 49/9/3 50/10/3 7/11/3 2/12/3
f 41/13/4 42/14/4 8/15/4 4/16/4
f 33/17/5 34/18/5 6/19/5 1/20/5
f 61/21/6 62/22/6 5/23/6 3/24/6
f 51/25/6 52/26/6 15/27/6 11/28/6
f 11/28/6 15/27/6 16/29/6 12/30/6
f 63/31/3 64/32/3 13/33/3 9/34/3
f 9/34/3 13/33/3 14/35/3 10/36/3
f 72/37/2 62/38/2 16/39/2 43/40/2
f 43/40/2 16/39/2 15/41/2 44/42/2
f 71/43/1 47/44/1 12/45/1 61/46/1
f 47/44/1 48/47/1 11/48/1 12/45/1
f 35/49/1 36/50/1 32/51/1 30/52/1
f 30/52/1 32/51/1 31/53/1 29/54/1
f 70/55/1 35/49/1 30/52/1 65/56/1
f 65/56/1 30/52/1 29/54/1 66/57/1
f 39/58/2 25/59/2 27/60/2 40/61/2
f 25/59/2 26/62/2 28/63/2 27/60/2
f 26/64/4 81/65/4 82/66/4 43/67/4
f 67/68/2 68/69/2 26/62/2 25/59/2
f 45/70/5 46/71/5 21/72/5 17/73/5
f 17/73/5 21/72/5 22/74/5 18/75/5
f 37/76/4 38/77/4 23/78/4 19/79/4
f 19/79/4 23/78/4 24/80/4 20/81/4
f 58/82/2 53/83/2 23/84/2 38/85/2
f 53/83/2 54/86/2 24/87/2 23/84/2
f 57/88/1 37/89/1 19/90/1 55/91/1
f 55/91/1 19/90/1 20/92/1 56/93/1
f 49/94/1 2/95/1 37/89/1 57/88/1
f 50/96/2 58/82/2 38/85/2 7/97/2
f 2/98/4 7/99/4 38/77/4 37/76/4
f 64/100/2 69/101/2 39/58/2 13/102/2
f 13/102/2 39/58/2 40/61/2 14/103/2
f 63/104/1 9/105/1 35/49/1 70/55/1
f 9/105/1 10/106/1 36/50/1 35/49/1
f 18/75/5 22/74/5 34/18/5 33/17/5
f 3/107/5 5/108/5 46/71/5 45/70/5
f 29/54/1 31/53/1 48/47/1 47/44/1
f 66/57/1 29/54/1 47/44/1 71/43/1
f 26/62/2 43/40/2 44/42/2 28/63/2
f 25/109/6 74/110/6 85/111/6 67/112/6
f 20/81/4 24/80/4 42/14/4 41/13/4
f 54/86/2 59/5/2 42/8/2 24/87/2
f 56/93/1 20/92/1 41/2/1 60/1/1
f 31/53/1 56/93/1 60/1/1 48/47/1
f 40/113/3 75/114/3 80/115/3 58/116/3
f 14/103/2 40/61/2 58/82/2 50/96/2
f 10/106/1 49/94/1 57/88/1 36/50/1
f 32/51/1 55/91/1 56/93/1 31/53/1
f 36/50/1 57/88/1 55/91/1 32/51/1
f 27/60/2 28/63/2 54/86/2 53/83/2
f 72/117/5 88/118/5 86/119/5 68/120/5
f 4/121/6 8/122/6 52/26/6 51/25/6
f 10/36/3 14/35/3 50/10/3 49/9/3
f 44/42/2 15/41/2 52/6/2 59/5/2
f 48/47/1 60/1/1 51/4/1 11/48/1
f 21/123/2 46/124/2 72/37/2 68/69/2
f 17/125/1 66/57/1 71/43/1 45/126/1
f 1/127/1 63/104/1 70/55/1 33/128/1
f 6/129/2 34/130/2 69/101/2 64/100/2
f 22/131/2 21/123/2 68/69/2 67/68/2
f 34/130/2 22/131/2 67/68/2 69/101/2
f 18/132/1 65/56/1 66/57/1 17/125/1
f 33/128/1 70/55/1 65/56/1 18/132/1
f 45/126/1 71/43/1 61/46/1 3/133/1
f 46/124/2 5/134/2 62/38/2 72/37/2
f 1/135/3 6/136/3 64/32/3 63/31/3
f 12/30/6 16/29/6 62/22/6 61/21/6
f 87/137/2 85/138/2 74/139/2 73/140/2
f 86/141/2 88/142/2 82/143/2 81/144/2
f 79/145/2 83/146/2 84/147/2 78/148/2
f 75/149/2 76/150/2 77/151/2 80/152/2
f 53/153/6 77/154/6 76/155/6 27/156/6
f 68/157/3 86/158/3 81/65/3 26/64/3
f 44/159/5 83/160/5 79/161/5 28/162/5
f 28/163/3 79/164/3 78/165/3 54/166/3
f 69/167/3 87/168/3 73/169/3 39/170/3
f 39/170/4 73/169/4 74/110/4 25/109/4
f 67/112/5 85/111/5 87/171/5 69/172/5
f 58/116/4 80/115/4 77/154/4 53/153/4
f 27/156/5 76/155/5 75/173/5 40/174/5
f 43/67/6 82/66/6 88/118/6 72/117/6
f 59/175/6 84/176/6 83/160/6 44/159/6
f 54/166/4 78/165/4 84/176/4 59/175/4
