# Blender v2.78 (sub 0) OBJ File: 'room.blend'
# www.blender.org
mtllib table.mtl
o Plane_Plane.001
v -0.570503 0.582228 0.570503
v 0.570503 0.582228 0.570503
v -0.570503 0.582228 -0.570503
v 0.570503 0.582228 -0.570503
v -0.570503 0.607588 -0.570503
v -0.570503 0.607588 0.570503
v 0.570503 0.607588 0.570503
v 0.570503 0.607588 -0.570503
v -0.383840 0.582228 0.570503
v 0.383840 0.582228 0.570503
v 0.383840 0.582228 -0.570503
v -0.383840 0.582228 -0.570503
v -0.383840 0.607588 0.570503
v 0.383840 0.607588 0.570503
v 0.383840 0.607588 -0.570503
v -0.383840 0.607588 -0.570503
v -0.316989 0.582228 0.570503
v 0.316989 0.582228 0.570503
v 0.316989 0.582228 -0.570503
v -0.316989 0.582228 -0.570503
v -0.316989 0.607588 0.570503
v 0.316989 0.607588 0.570503
v 0.316989 0.607588 -0.570503
v -0.316989 0.607588 -0.570503
v -0.570503 0.582228 -0.453680
v -0.570503 0.582228 0.453680
v 0.570503 0.582228 0.453680
v 0.570503 0.582228 -0.453680
v -0.570503 0.607588 -0.453680
v -0.570503 0.607588 0.453680
v 0.570503 0.607588 0.453680
v 0.570503 0.607588 -0.453680
v -0.383840 0.607588 0.453680
v -0.383840 0.607588 -0.453680
v 0.383840 0.607588 0.453680
v 0.383840 0.607588 -0.453680
v -0.383840 0.582228 -0.453680
v -0.383840 0.582228 0.453680
v 0.383840 0.582228 -0.453680
v 0.383840 0.582228 0.453680
v -0.316989 0.582228 -0.453680
v -0.316989 0.582228 0.453680
v 0.316989 0.582228 -0.453680
v 0.316989 0.582228 0.453680
v -0.316989 0.607588 0.453680
v -0.316989 0.607588 -0.453680
v 0.316989 0.607588 0.453680
v 0.316989 0.607588 -0.453680
v -0.570503 0.582228 -0.378374
v -0.570503 0.582228 0.378374
v 0.570503 0.582228 0.378374
v 0.570503 0.582228 -0.378374
v -0.570503 0.607588 -0.378374
v -0.570503 0.607588 0.378374
v 0.570503 0.607588 0.378374
v 0.570503 0.607588 -0.378374
v -0.383840 0.607588 0.378374
v -0.383840 0.607588 -0.378374
v 0.383840 0.607588 0.378374
v 0.383840 0.607588 -0.378374
v -0.383840 0.582228 -0.378374
v -0.383840 0.582228 0.378374
v 0.383840 0.582228 -0.378374
v 0.383840 0.582228 0.378374
v -0.316989 0.582228 -0.378374
v -0.316989 0.582228 0.378374
v 0.316989 0.582228 -0.378374
v 0.316989 0.582228 0.378374
v -0.316989 0.607588 0.378374
v -0.316989 0.607588 -0.378374
v 0.316989 0.607588 0.378374
v 0.316989 0.607588 -0.378374
v -0.383840 -0.126172 0.378374
v -0.383840 -0.126172 0.453680
v 0.383840 -0.126172 0.378374
v 0.383840 -0.126172 0.453680
v -0.316989 -0.126172 0.378374
v -0.316989 -0.126172 0.453680
v 0.316989 -0.126172 0.378374
v 0.316989 -0.126172 0.453680
v -0.383840 -0.126172 -0.453680
v -0.316989 -0.126172 -0.453680
v 0.316989 -0.126172 -0.453680
v 0.383840 -0.126172 -0.453680
v -0.383840 -0.126172 -0.378374
v 0.383840 -0.126172 -0.378374
v -0.316989 -0.126172 -0.378374
v 0.316989 -0.126172 -0.378374
vt -2.6200 -2.1858
vt -2.6200 -2.4603
vt -2.1813 -2.4603
vt -2.1813 -2.1858
vt -2.6200 2.6300
vt -2.1813 2.6300
vt -2.1813 2.9045
vt -2.6200 2.9045
vt 0.9387 2.9664
vt 0.5000 2.9664
vt 0.5000 2.9068
vt 0.9387 2.9068
vt -4.4240 2.9663
vt -4.8627 2.9663
vt -4.8627 2.9067
vt -4.4240 2.9067
vt 3.4559 2.9664
vt 3.1813 2.9664
vt 3.1814 2.9068
vt 3.4559 2.9068
vt -1.9068 2.9664
vt -2.1813 2.9664
vt -2.1813 2.9068
vt -1.9068 2.9068
vt -2.6200 2.9664
vt -2.6200 2.9068
vt -4.2669 2.9663
vt -4.2669 2.9067
vt 2.7427 2.9664
vt 2.7427 2.9068
vt 1.0958 2.9664
vt 1.0958 2.9068
vt -4.8627 2.6300
vt -4.4240 2.6300
vt -4.4240 2.9045
vt -4.8627 2.9045
vt -2.7771 2.6300
vt -2.7771 2.9045
vt -4.8627 -2.1858
vt -4.8627 -2.4603
vt -4.4240 -2.4603
vt -4.4240 -2.1858
vt -2.7771 -2.1858
vt -2.7771 -2.4603
vt -4.2669 -2.4603
vt -4.2669 -2.1858
vt -4.2669 2.6300
vt -4.2669 2.9045
vt 2.5856 2.9664
vt 2.5856 2.9068
vt -2.7771 2.9664
vt -2.7771 2.9068
vt -4.2669 0.2232
vt -2.7771 0.2232
vt -2.7771 0.4977
vt -4.2669 0.4977
vt -4.2669 2.4530
vt -2.7771 2.4530
vt -4.4240 0.2232
vt -4.4240 0.4977
vt -4.4240 2.4530
vt -4.2669 0.2210
vt -4.2669 -0.0535
vt -2.7771 -0.0535
vt -2.7771 0.2210
vt -4.2669 -2.0088
vt -2.7771 -2.0088
vt -4.4240 0.2210
vt -4.4240 -0.0535
vt -2.0220 0.8713
vt -2.1791 0.8713
vt -2.1791 -0.7934
vt -2.0220 -0.7934
vt -2.6200 -0.0535
vt -2.6200 0.2210
vt -1.3318 -0.7956
vt -1.5088 -0.7956
vt -1.5088 -2.4603
vt -1.3318 -2.4603
vt -4.8627 0.2210
vt -4.8627 -0.0535
vt -4.8627 -2.0088
vt -4.4240 -2.0088
vt -2.6200 0.2232
vt -2.6200 0.4977
vt -2.6200 2.4530
vt -4.8627 0.2232
vt -4.8627 0.4977
vt -4.8627 2.4530
vt 0.2255 2.9664
vt 0.2255 2.9068
vt -1.7298 2.9664
vt -1.7298 2.9068
vt 5.8627 2.9664
vt 5.5881 2.9664
vt 5.5881 2.9068
vt 5.8627 2.9068
vt 3.6328 2.9664
vt 3.6328 2.9068
vt -2.1813 0.2232
vt -2.1813 0.4977
vt -2.1813 2.4530
vt -2.1813 -0.0535
vt -2.1813 0.2210
vt -2.6200 -2.0088
vt -2.1813 -2.0088
vt -2.6200 -0.2305
vt -2.1813 -0.2305
vt -2.1813 0.6747
vt -2.6200 0.6747
vt 5.4112 2.9664
vt 5.4112 2.9068
vt 0.0485 2.9664
vt 0.0485 2.9068
vt -4.4240 0.6747
vt -4.8627 0.6747
vt -2.7771 0.6747
vt -4.8627 -0.2305
vt -4.4240 -0.2305
vt -1.5110 -0.7956
vt -1.6681 -0.7956
vt -1.6681 -2.4603
vt -1.5110 -2.4603
vt -2.7771 -0.2305
vt -2.0022 -0.7956
vt -2.1791 -0.7956
vt -2.1791 -2.4603
vt -2.0022 -2.4603
vt -4.2669 -0.2305
vt -4.2669 0.6747
vt -1.9999 0.8735
vt -1.8230 0.8735
vt -1.8230 1.0306
vt -1.9999 1.0306
vt -2.1791 0.8735
vt -2.0022 0.8735
vt -2.0022 1.0306
vt -2.1791 1.0306
vt -1.6416 0.8735
vt -1.4646 0.8735
vt -1.4646 1.0306
vt -1.6416 1.0306
vt -1.8208 0.8735
vt -1.6438 0.8735
vt -1.6438 1.0306
vt -1.8208 1.0306
vt -1.1747 0.8713
vt -1.3517 0.8713
vt -1.3517 -0.7934
vt -1.1747 -0.7934
vt -1.5088 0.8713
vt -1.5088 -0.7934
vt -1.5110 0.8713
vt -1.6880 0.8713
vt -1.6880 -0.7934
vt -1.5110 -0.7934
vt -0.8407 -0.7956
vt -0.9978 -0.7956
vt -0.9978 -2.4603
vt -0.8407 -2.4603
vt -1.8451 -0.7956
vt -1.8451 -2.4603
vt -1.0176 0.8713
vt -1.0176 -0.7934
vt -1.1747 -0.7956
vt -1.1747 -2.4603
vt -0.8407 0.8713
vt -0.8407 -0.7934
vt -1.8451 0.8713
vt -1.8451 -0.7934
vn 0.0000 -1.0000 0.0000
vn 0.0000 1.0000 0.0000
vn 0.0000 0.0000 -1.0000
vn 0.0000 0.0000 1.0000
vn 1.0000 0.0000 0.0000
vn -1.0000 0.0000 0.0000
usemtl Wood
s off
f 39/1/1 11/2/1 4/3/1 28/4/1
f 36/5/2 32/6/2 8/7/2 15/8/2
f 12/9/3 3/10/3 5/11/3 16/12/3
f 10/13/4 2/14/4 7/15/4 14/16/4
f 28/17/5 4/18/5 8/19/5 32/20/5
f 26/21/6 1/22/6 6/23/6 30/24/6
f 1/22/4 9/25/4 13/26/4 6/23/4
f 18/27/4 10/13/4 14/16/4 22/28/4
f 4/18/3 11/29/3 15/30/3 8/19/3
f 20/31/3 12/9/3 16/12/3 24/32/3
f 29/33/2 34/34/2 16/35/2 5/36/2
f 48/37/2 36/5/2 15/8/2 23/38/2
f 25/39/1 3/40/1 12/41/1 37/42/1
f 43/43/1 19/44/1 11/2/1 39/1/1
f 37/42/1 12/41/1 20/45/1 41/46/1
f 41/46/1 20/45/1 19/44/1 43/43/1
f 34/34/2 46/47/2 24/48/2 16/35/2
f 46/47/2 48/37/2 23/38/2 24/48/2
f 11/29/3 19/49/3 23/50/3 15/30/3
f 19/49/3 20/31/3 24/32/3 23/50/3
f 9/25/4 17/51/4 21/52/4 13/26/4
f 17/51/4 18/27/4 22/28/4 21/52/4
f 21/53/2 22/54/2 47/55/2 45/56/2
f 70/57/2 72/58/2 48/37/2 46/47/2
f 13/59/2 21/53/2 45/56/2 33/60/2
f 58/61/2 70/57/2 46/47/2 34/34/2
f 17/62/1 42/63/1 44/64/1 18/65/1
f 65/66/1 41/46/1 43/43/1 67/67/1
f 9/68/1 38/69/1 42/63/1 17/62/1
f 63/70/4 67/71/4 88/72/4 86/73/4
f 18/65/1 44/64/1 40/74/1 10/75/1
f 41/76/5 65/77/5 87/78/5 82/79/5
f 1/80/1 26/81/1 38/69/1 9/68/1
f 49/82/1 25/39/1 37/42/1 61/83/1
f 22/54/2 14/84/2 35/85/2 47/55/2
f 72/58/2 60/86/2 36/5/2 48/37/2
f 6/87/2 13/59/2 33/60/2 30/88/2
f 53/89/2 58/61/2 34/34/2 29/33/2
f 3/10/6 25/90/6 29/91/6 5/11/6
f 50/92/6 26/21/6 30/24/6 54/93/6
f 2/94/5 27/95/5 31/96/5 7/97/5
f 52/98/5 28/17/5 32/20/5 56/99/5
f 14/84/2 7/100/2 31/101/2 35/85/2
f 60/86/2 56/102/2 32/6/2 36/5/2
f 10/75/1 40/74/1 27/103/1 2/104/1
f 63/105/1 39/1/1 28/4/1 52/106/1
f 40/74/1 64/107/1 51/108/1 27/103/1
f 64/107/1 63/105/1 52/106/1 51/108/1
f 35/85/2 31/101/2 55/109/2 59/110/2
f 59/110/2 55/109/2 56/102/2 60/86/2
f 27/95/5 51/111/5 55/112/5 31/96/5
f 51/111/5 52/98/5 56/99/5 55/112/5
f 25/90/6 49/113/6 53/114/6 29/91/6
f 49/113/6 50/92/6 54/93/6 53/114/6
f 30/88/2 33/60/2 57/115/2 54/116/2
f 54/116/2 57/115/2 58/61/2 53/89/2
f 47/55/2 35/85/2 59/110/2 71/117/2
f 71/117/2 59/110/2 60/86/2 72/58/2
f 26/81/1 50/118/1 62/119/1 38/69/1
f 50/118/1 49/82/1 61/83/1 62/119/1
f 68/120/3 64/121/3 75/122/3 79/123/3
f 68/124/1 67/67/1 63/105/1 64/107/1
f 44/125/6 68/126/6 79/127/6 80/128/6
f 62/119/1 61/83/1 65/66/1 66/129/1
f 42/63/1 66/129/1 68/124/1 44/64/1
f 66/129/1 65/66/1 67/67/1 68/124/1
f 33/60/2 45/56/2 69/130/2 57/115/2
f 57/115/2 69/130/2 70/57/2 58/61/2
f 45/56/2 47/55/2 71/117/2 69/130/2
f 69/130/2 71/117/2 72/58/2 70/57/2
f 85/131/1 81/132/1 82/133/1 87/134/1
f 88/135/1 83/136/1 84/137/1 86/138/1
f 80/139/1 79/140/1 75/141/1 76/142/1
f 74/143/1 73/144/1 77/145/1 78/146/1
f 38/147/6 62/148/6 73/149/6 74/150/6
f 62/148/3 66/151/3 77/152/3 73/149/3
f 67/153/6 43/154/6 83/155/6 88/156/6
f 65/157/4 61/158/4 85/159/4 87/160/4
f 64/121/5 40/161/5 76/162/5 75/122/5
f 42/163/4 38/147/4 74/150/4 78/164/4
f 61/158/6 37/165/6 81/166/6 85/159/6
f 37/165/3 41/76/3 82/79/3 81/166/3
f 66/167/5 42/163/5 78/164/5 77/168/5
f 40/161/4 44/125/4 80/128/4 76/162/4
f 39/169/5 63/70/5 86/73/5 84/170/5
f 43/154/3 39/169/3 84/170/3 83/155/3
