# Blender v2.78 (sub 0) OBJ File: 'pokojVR.blend'
# www.blender.org
mtllib table.mtl
o Plane.005_Plane.018
v 4.298288 1.681044 -0.676839
v 4.298288 1.681044 0.676839
v -4.298288 1.681044 0.676839
v -4.298288 1.681044 -0.676839
v 4.298288 1.326165 -0.676839
v 4.298288 1.326165 0.676839
v -4.298288 1.326165 0.676839
v -4.298288 1.326165 -0.676839
v 3.767915 1.210830 -0.482775
v 3.767915 1.210830 0.482775
v -3.767915 1.210830 0.482775
v -3.767915 1.210830 -0.482775
v 3.767915 0.000000 -0.482775
v -3.767915 0.000000 -0.482775
v 3.767915 0.000000 0.482775
v -3.767915 0.000000 0.482775
vt 0.8953 0.1823
vt 0.0002 0.1854
vt 0.0002 0.1478
vt 0.9107 0.1478
vt 0.0362 0.0110
vt 0.1047 0.1129
vt 0.0893 0.1474
vt 0.0002 0.0367
vt 0.9638 0.2842
vt 0.9998 0.2584
vt 0.0002 0.2954
vt 0.9077 0.2954
vt 0.9077 0.4383
vt 0.0002 0.4383
vt 0.0957 0.0002
vt 0.1463 0.0880
vt 0.9043 0.2950
vt 0.8537 0.2072
vt 0.9287 0.0796
vt 0.9998 0.1098
vt 0.9998 0.1474
vt 0.0003 0.5670
vt 0.7958 0.5673
vt 0.7957 0.6951
vt 0.0002 0.6948
vt 0.7957 0.5665
vt 0.0002 0.5665
vt 0.0002 0.4387
vt 0.7957 0.4387
vt 0.7962 0.6955
vt 0.8981 0.6955
vt 0.8981 0.8233
vt 0.7962 0.8233
vt 0.8977 0.5665
vt 0.8977 0.4387
vt 0.0713 0.2155
vt 0.0002 0.7974
vt 0.0003 0.6955
vt 0.7958 0.6958
vt 0.7957 0.7977
vn 0.0000 0.0000 -1.0000
vn -1.0000 0.0000 0.0000
vn 1.0000 0.0000 0.0000
vn 0.0000 1.0000 0.0000
vn -0.2125 -0.9772 0.0000
vn 0.2125 -0.9772 0.0000
vn 0.0000 -0.8596 0.5109
vn 0.0000 0.0000 1.0000
vn 0.0000 -0.8596 -0.5109
vn 0.0000 -1.0000 0.0000
usemtl None
s off
f 5/1/1 8/2/1 4/3/1 1/4/1
f 8/5/2 7/6/2 3/7/2 4/8/2
f 6/9/3 5/1/3 1/4/3 2/10/3
f 3/11/4 2/12/4 1/13/4 4/14/4
f 12/15/5 11/16/5 7/6/5 8/5/5
f 10/17/6 9/18/6 5/1/6 6/9/6
f 11/16/7 10/19/7 6/20/7 7/6/7
f 7/6/8 6/20/8 2/21/8 3/7/8
f 16/22/8 15/23/8 10/24/8 11/25/8
f 13/26/1 14/27/1 12/28/1 9/29/1
f 14/30/2 16/31/2 11/32/2 12/33/2
f 15/34/3 13/26/3 9/29/3 10/35/3
f 9/18/9 12/36/9 8/2/9 5/1/9
f 16/37/10 14/38/10 13/39/10 15/40/10
